<?xml version="1.0" encoding="utf-8" standalone="no"?>
<!DOCTYPE svg PUBLIC "-//W3C//DTD SVG 1.1//EN"
  "http://www.w3.org/Graphics/SVG/1.1/DTD/svg11.dtd">
<svg xmlns:xlink="http://www.w3.org/1999/xlink" width="1350pt" height="259.2pt" viewBox="0 0 1350 259.2" xmlns="http://www.w3.org/2000/svg" version="1.1">
 <metadata>
  <rdf:RDF xmlns:dc="http://purl.org/dc/elements/1.1/" xmlns:cc="http://creativecommons.org/ns#" xmlns:rdf="http://www.w3.org/1999/02/22-rdf-syntax-ns#">
   <cc:Work>
    <dc:type rdf:resource="http://purl.org/dc/dcmitype/StillImage"/>
    <dc:date>2023-09-07T19:26:17.704861</dc:date>
    <dc:format>image/svg+xml</dc:format>
    <dc:creator>
     <cc:Agent>
      <dc:title>Matplotlib v3.7.1, https://matplotlib.org/</dc:title>
     </cc:Agent>
    </dc:creator>
   </cc:Work>
  </rdf:RDF>
 </metadata>
 <defs>
  <style type="text/css">*{stroke-linejoin: round; stroke-linecap: butt}</style>
 </defs>
 <g id="figure_1">
  <g id="patch_1">
   <path d="M 0 259.2 
L 1350 259.2 
L 1350 0 
L 0 0 
z
" style="fill: #ffffff"/>
  </g>
  <g id="axes_1">
   <g id="patch_2">
    <path d="M 170.330438 130.283779 
L 265.156722 130.283779 
L 265.156722 179.261448 
L 170.330438 179.261448 
z
" clip-path="url(#p80d537ee96)" style="fill: #ffffff"/>
   </g>
   <g id="patch_3">
    <path d="M 265.156722 130.283779 
L 328.374245 130.283779 
L 328.374245 179.261448 
L 265.156722 179.261448 
z
" clip-path="url(#p80d537ee96)" style="fill: #ffffff"/>
   </g>
   <g id="patch_4">
    <path d="M 328.374245 130.283779 
L 391.591767 130.283779 
L 391.591767 179.261448 
L 328.374245 179.261448 
z
" clip-path="url(#p80d537ee96)" style="fill: #ffffff"/>
   </g>
   <g id="patch_5">
    <path d="M 391.591767 130.283779 
L 454.80929 130.283779 
L 454.80929 179.261448 
L 391.591767 179.261448 
z
" clip-path="url(#p80d537ee96)" style="fill: #ffffff"/>
   </g>
   <g id="patch_6">
    <path d="M 454.80929 130.283779 
L 518.026813 130.283779 
L 518.026813 179.261448 
L 454.80929 179.261448 
z
" clip-path="url(#p80d537ee96)" style="fill: #ffffff"/>
   </g>
   <g id="patch_7">
    <path d="M 518.026813 130.283779 
L 581.244335 130.283779 
L 581.244335 179.261448 
L 518.026813 179.261448 
z
" clip-path="url(#p80d537ee96)" style="fill: #ffffff"/>
   </g>
   <g id="patch_8">
    <path d="M 581.244335 130.283779 
L 644.461858 130.283779 
L 644.461858 179.261448 
L 581.244335 179.261448 
z
" clip-path="url(#p80d537ee96)" style="fill: #ffffff"/>
   </g>
   <g id="patch_9">
    <path d="M 644.461858 130.283779 
L 707.679381 130.283779 
L 707.679381 179.261448 
L 644.461858 179.261448 
z
" clip-path="url(#p80d537ee96)" style="fill: #ffffff"/>
   </g>
   <g id="patch_10">
    <path d="M 707.679381 130.283779 
L 770.896903 130.283779 
L 770.896903 179.261448 
L 707.679381 179.261448 
z
" clip-path="url(#p80d537ee96)" style="fill: #ffffff"/>
   </g>
   <g id="patch_11">
    <path d="M 770.896903 130.283779 
L 834.114426 130.283779 
L 834.114426 179.261448 
L 770.896903 179.261448 
z
" clip-path="url(#p80d537ee96)" style="fill: #ffffff"/>
   </g>
   <g id="patch_12">
    <path d="M 834.114426 130.283779 
L 897.331949 130.283779 
L 897.331949 179.261448 
L 834.114426 179.261448 
z
" clip-path="url(#p80d537ee96)" style="fill: #ffffff"/>
   </g>
   <g id="patch_13">
    <path d="M 897.331949 130.283779 
L 960.549471 130.283779 
L 960.549471 179.261448 
L 897.331949 179.261448 
z
" clip-path="url(#p80d537ee96)" style="fill: #ffffff"/>
   </g>
   <g id="patch_14">
    <path d="M 960.549471 130.283779 
L 1023.766994 130.283779 
L 1023.766994 179.261448 
L 960.549471 179.261448 
z
" clip-path="url(#p80d537ee96)" style="fill: #ffffff"/>
   </g>
   <g id="patch_15">
    <path d="M 1023.766994 130.283779 
L 1086.984517 130.283779 
L 1086.984517 179.261448 
L 1023.766994 179.261448 
z
" clip-path="url(#p80d537ee96)" style="fill: #ffffff"/>
   </g>
   <g id="patch_16">
    <path d="M 1023.766994 130.283779 
L 1086.984517 130.283779 
L 1086.984517 179.261448 
L 1023.766994 179.261448 
z
" clip-path="url(#p80d537ee96)" style="fill: #ffffff"/>
   </g>
   <g id="patch_17">
    <path d="M 1086.984517 130.283779 
L 1150.202039 130.283779 
L 1150.202039 179.261448 
L 1086.984517 179.261448 
z
" clip-path="url(#p80d537ee96)" style="fill: #ffffff"/>
   </g>
   <g id="patch_18">
    <path d="M 1086.984517 130.283779 
L 1150.202039 130.283779 
L 1150.202039 179.261448 
L 1086.984517 179.261448 
z
" clip-path="url(#p80d537ee96)" style="fill: #ffffff"/>
   </g>
   <g id="patch_19">
    <path d="M 1150.202039 130.283779 
L 1213.419562 130.283779 
L 1213.419562 179.261448 
L 1150.202039 179.261448 
z
" clip-path="url(#p80d537ee96)" style="fill: #ffffff"/>
   </g>
   <g id="patch_20">
    <path d="M 1150.202039 130.283779 
L 1213.419562 130.283779 
L 1213.419562 179.261448 
L 1150.202039 179.261448 
z
" clip-path="url(#p80d537ee96)" style="fill: #ffffff"/>
   </g>
   <g id="patch_21">
    <path d="M 170.330438 179.261448 
L 265.156722 179.261448 
L 265.156722 228.239117 
L 170.330438 228.239117 
z
" clip-path="url(#p80d537ee96)" style="fill: #ffffff"/>
   </g>
   <g id="patch_22">
    <path d="M 265.156722 179.261448 
L 328.374245 179.261448 
L 328.374245 228.239117 
L 265.156722 228.239117 
z
" clip-path="url(#p80d537ee96)" style="fill: #ffffff"/>
   </g>
   <g id="patch_23">
    <path d="M 328.374245 179.261448 
L 391.591767 179.261448 
L 391.591767 228.239117 
L 328.374245 228.239117 
z
" clip-path="url(#p80d537ee96)" style="fill: #ffffff"/>
   </g>
   <g id="patch_24">
    <path d="M 391.591767 179.261448 
L 454.80929 179.261448 
L 454.80929 228.239117 
L 391.591767 228.239117 
z
" clip-path="url(#p80d537ee96)" style="fill: #ffffff"/>
   </g>
   <g id="patch_25">
    <path d="M 454.80929 179.261448 
L 518.026813 179.261448 
L 518.026813 228.239117 
L 454.80929 228.239117 
z
" clip-path="url(#p80d537ee96)" style="fill: #ffffff"/>
   </g>
   <g id="patch_26">
    <path d="M 518.026813 179.261448 
L 581.244335 179.261448 
L 581.244335 228.239117 
L 518.026813 228.239117 
z
" clip-path="url(#p80d537ee96)" style="fill: #ffffff"/>
   </g>
   <g id="patch_27">
    <path d="M 581.244335 179.261448 
L 644.461858 179.261448 
L 644.461858 228.239117 
L 581.244335 228.239117 
z
" clip-path="url(#p80d537ee96)" style="fill: #ffffff"/>
   </g>
   <g id="patch_28">
    <path d="M 644.461858 179.261448 
L 707.679381 179.261448 
L 707.679381 228.239117 
L 644.461858 228.239117 
z
" clip-path="url(#p80d537ee96)" style="fill: #ffffff"/>
   </g>
   <g id="patch_29">
    <path d="M 707.679381 179.261448 
L 770.896903 179.261448 
L 770.896903 228.239117 
L 707.679381 228.239117 
z
" clip-path="url(#p80d537ee96)" style="fill: #ffffff"/>
   </g>
   <g id="patch_30">
    <path d="M 770.896903 179.261448 
L 834.114426 179.261448 
L 834.114426 228.239117 
L 770.896903 228.239117 
z
" clip-path="url(#p80d537ee96)" style="fill: #ffffff"/>
   </g>
   <g id="patch_31">
    <path d="M 834.114426 179.261448 
L 897.331949 179.261448 
L 897.331949 228.239117 
L 834.114426 228.239117 
z
" clip-path="url(#p80d537ee96)" style="fill: #ffffff"/>
   </g>
   <g id="patch_32">
    <path d="M 897.331949 179.261448 
L 960.549471 179.261448 
L 960.549471 228.239117 
L 897.331949 228.239117 
z
" clip-path="url(#p80d537ee96)" style="fill: #ffffff"/>
   </g>
   <g id="patch_33">
    <path d="M 960.549471 179.261448 
L 1023.766994 179.261448 
L 1023.766994 228.239117 
L 960.549471 228.239117 
z
" clip-path="url(#p80d537ee96)" style="fill: #ffffff"/>
   </g>
   <g id="patch_34">
    <path d="M 1023.766994 179.261448 
L 1086.984517 179.261448 
L 1086.984517 228.239117 
L 1023.766994 228.239117 
z
" clip-path="url(#p80d537ee96)" style="fill: #ffffff"/>
   </g>
   <g id="patch_35">
    <path d="M 1023.766994 179.261448 
L 1086.984517 179.261448 
L 1086.984517 228.239117 
L 1023.766994 228.239117 
z
" clip-path="url(#p80d537ee96)" style="fill: #ffffff"/>
   </g>
   <g id="patch_36">
    <path d="M 1086.984517 179.261448 
L 1150.202039 179.261448 
L 1150.202039 228.239117 
L 1086.984517 228.239117 
z
" clip-path="url(#p80d537ee96)" style="fill: #ffffff"/>
   </g>
   <g id="patch_37">
    <path d="M 1086.984517 179.261448 
L 1150.202039 179.261448 
L 1150.202039 228.239117 
L 1086.984517 228.239117 
z
" clip-path="url(#p80d537ee96)" style="fill: #ffffff"/>
   </g>
   <g id="patch_38">
    <path d="M 1150.202039 179.261448 
L 1213.419562 179.261448 
L 1213.419562 228.239117 
L 1150.202039 228.239117 
z
" clip-path="url(#p80d537ee96)" style="fill: #ffffff"/>
   </g>
   <g id="patch_39">
    <path d="M 1150.202039 179.261448 
L 1213.419562 179.261448 
L 1213.419562 228.239117 
L 1150.202039 228.239117 
z
" clip-path="url(#p80d537ee96)" style="fill: #ffffff"/>
   </g>
   <g id="patch_40">
    <path d="M 170.330438 81.30611 
L 265.156722 81.30611 
L 265.156722 130.283779 
L 170.330438 130.283779 
z
" clip-path="url(#p80d537ee96)" style="fill: #ffffff"/>
   </g>
   <g id="patch_41">
    <path d="M 265.156722 81.30611 
L 328.374245 81.30611 
L 328.374245 130.283779 
L 265.156722 130.283779 
z
" clip-path="url(#p80d537ee96)" style="fill: #ffffff"/>
   </g>
   <g id="patch_42">
    <path d="M 328.374245 81.30611 
L 391.591767 81.30611 
L 391.591767 130.283779 
L 328.374245 130.283779 
z
" clip-path="url(#p80d537ee96)" style="fill: #ffffff"/>
   </g>
   <g id="patch_43">
    <path d="M 391.591767 81.30611 
L 454.80929 81.30611 
L 454.80929 130.283779 
L 391.591767 130.283779 
z
" clip-path="url(#p80d537ee96)" style="fill: #ffffff"/>
   </g>
   <g id="patch_44">
    <path d="M 454.80929 81.30611 
L 518.026813 81.30611 
L 518.026813 130.283779 
L 454.80929 130.283779 
z
" clip-path="url(#p80d537ee96)" style="fill: #ffffff"/>
   </g>
   <g id="patch_45">
    <path d="M 518.026813 81.30611 
L 581.244335 81.30611 
L 581.244335 130.283779 
L 518.026813 130.283779 
z
" clip-path="url(#p80d537ee96)" style="fill: #ffffff"/>
   </g>
   <g id="patch_46">
    <path d="M 581.244335 81.30611 
L 644.461858 81.30611 
L 644.461858 130.283779 
L 581.244335 130.283779 
z
" clip-path="url(#p80d537ee96)" style="fill: #ffffff"/>
   </g>
   <g id="patch_47">
    <path d="M 644.461858 81.30611 
L 707.679381 81.30611 
L 707.679381 130.283779 
L 644.461858 130.283779 
z
" clip-path="url(#p80d537ee96)" style="fill: #ffffff"/>
   </g>
   <g id="patch_48">
    <path d="M 707.679381 81.30611 
L 770.896903 81.30611 
L 770.896903 130.283779 
L 707.679381 130.283779 
z
" clip-path="url(#p80d537ee96)" style="fill: #ffffff"/>
   </g>
   <g id="patch_49">
    <path d="M 770.896903 81.30611 
L 834.114426 81.30611 
L 834.114426 130.283779 
L 770.896903 130.283779 
z
" clip-path="url(#p80d537ee96)" style="fill: #ffffff"/>
   </g>
   <g id="patch_50">
    <path d="M 834.114426 81.30611 
L 897.331949 81.30611 
L 897.331949 130.283779 
L 834.114426 130.283779 
z
" clip-path="url(#p80d537ee96)" style="fill: #ffffff"/>
   </g>
   <g id="patch_51">
    <path d="M 897.331949 81.30611 
L 960.549471 81.30611 
L 960.549471 130.283779 
L 897.331949 130.283779 
z
" clip-path="url(#p80d537ee96)" style="fill: #ffffff"/>
   </g>
   <g id="patch_52">
    <path d="M 960.549471 81.30611 
L 1023.766994 81.30611 
L 1023.766994 130.283779 
L 960.549471 130.283779 
z
" clip-path="url(#p80d537ee96)" style="fill: #ffffff"/>
   </g>
   <g id="patch_53">
    <path d="M 1023.766994 81.30611 
L 1086.984517 81.30611 
L 1086.984517 130.283779 
L 1023.766994 130.283779 
z
" clip-path="url(#p80d537ee96)" style="fill: #ffffff"/>
   </g>
   <g id="patch_54">
    <path d="M 1086.984517 81.30611 
L 1150.202039 81.30611 
L 1150.202039 130.283779 
L 1086.984517 130.283779 
z
" clip-path="url(#p80d537ee96)" style="fill: #ffffff"/>
   </g>
   <g id="patch_55">
    <path d="M 1150.202039 81.30611 
L 1213.419562 81.30611 
L 1213.419562 130.283779 
L 1150.202039 130.283779 
z
" clip-path="url(#p80d537ee96)" style="fill: #ffffff"/>
   </g>
   <g id="patch_56">
    <path d="M 265.156722 81.30611 
L 707.679381 81.30611 
L 707.679381 130.283779 
L 265.156722 130.283779 
z
" clip-path="url(#p80d537ee96)" style="fill: #ffffff"/>
   </g>
   <g id="patch_57">
    <path d="M 1023.766994 81.30611 
L 1213.419562 81.30611 
L 1213.419562 130.283779 
L 1023.766994 130.283779 
z
" clip-path="url(#p80d537ee96)" style="fill: #ffffff"/>
   </g>
   <g id="patch_58">
    <path d="M 707.679381 81.30611 
L 1023.766994 81.30611 
L 1023.766994 130.283779 
L 707.679381 130.283779 
z
" clip-path="url(#p80d537ee96)" style="fill: #ffffff"/>
   </g>
   <g id="patch_59">
    <path d="M 1023.766994 130.283779 
L 1086.984517 130.283779 
L 1086.984517 179.261448 
L 1023.766994 179.261448 
z
" clip-path="url(#p80d537ee96)" style="fill: #ffffff"/>
   </g>
   <g id="patch_60">
    <path d="M 1086.984517 130.283779 
L 1150.202039 130.283779 
L 1150.202039 179.261448 
L 1086.984517 179.261448 
z
" clip-path="url(#p80d537ee96)" style="fill: #ffffff"/>
   </g>
   <g id="patch_61">
    <path d="M 1150.202039 130.283779 
L 1213.419562 130.283779 
L 1213.419562 179.261448 
L 1150.202039 179.261448 
z
" clip-path="url(#p80d537ee96)" style="fill: #ffffff"/>
   </g>
   <g id="patch_62">
    <path d="M 1023.766994 179.261448 
L 1086.984517 179.261448 
L 1086.984517 228.239117 
L 1023.766994 228.239117 
z
" clip-path="url(#p80d537ee96)" style="fill: #ffffff"/>
   </g>
   <g id="patch_63">
    <path d="M 1086.984517 179.261448 
L 1150.202039 179.261448 
L 1150.202039 228.239117 
L 1086.984517 228.239117 
z
" clip-path="url(#p80d537ee96)" style="fill: #ffffff"/>
   </g>
   <g id="patch_64">
    <path d="M 1150.202039 179.261448 
L 1213.419562 179.261448 
L 1213.419562 228.239117 
L 1150.202039 228.239117 
z
" clip-path="url(#p80d537ee96)" style="fill: #ffffff"/>
   </g>
   <g id="line2d_1">
    <path d="M 287.282855 81.30611 
L 685.553248 81.30611 
" clip-path="url(#p80d537ee96)" style="fill: none; stroke: #000000; stroke-width: 0.2; stroke-linecap: square"/>
   </g>
   <g id="line2d_2">
    <path d="M 1033.249622 81.30611 
L 1203.936934 81.30611 
" clip-path="url(#p80d537ee96)" style="fill: none; stroke: #000000; stroke-width: 0.2; stroke-linecap: square"/>
   </g>
   <g id="line2d_3">
    <path d="M 723.483761 81.30611 
L 1007.962613 81.30611 
" clip-path="url(#p80d537ee96)" style="fill: none; stroke: #000000; stroke-width: 0.2; stroke-linecap: square"/>
   </g>
   <g id="line2d_4">
    <path d="M 170.330438 130.283779 
L 1213.419562 130.283779 
" clip-path="url(#p80d537ee96)" style="fill: none; stroke: #000000; stroke-linecap: square"/>
   </g>
   <g id="line2d_5">
    <path d="M 170.330438 228.239117 
L 1213.419562 228.239117 
" clip-path="url(#p80d537ee96)" style="fill: none; stroke: #000000; stroke-linecap: square"/>
   </g>
   <g id="line2d_6">
    <path d="M 170.330438 179.261448 
L 1213.419562 179.261448 
" clip-path="url(#p80d537ee96)" style="fill: none; stroke-dasharray: 1,5; stroke-dashoffset: 0; stroke: #000000"/>
   </g>
   <g id="line2d_7">
    <path d="M 1023.766994 130.283779 
L 1023.766994 228.239117 
" clip-path="url(#p80d537ee96)" style="fill: none; stroke: #000000; stroke-linecap: square"/>
   </g>
   <g id="text_1">
    <!-- SN_T -->
    <g transform="translate(179.813066 157.304645) scale(0.1 -0.1)">
     <defs>
      <path id="DejaVuSans-Bold-53" d="M 3834 4519 
L 3834 3531 
Q 3450 3703 3084 3790 
Q 2719 3878 2394 3878 
Q 1963 3878 1756 3759 
Q 1550 3641 1550 3391 
Q 1550 3203 1689 3098 
Q 1828 2994 2194 2919 
L 2706 2816 
Q 3484 2659 3812 2340 
Q 4141 2022 4141 1434 
Q 4141 663 3683 286 
Q 3225 -91 2284 -91 
Q 1841 -91 1394 -6 
Q 947 78 500 244 
L 500 1259 
Q 947 1022 1364 901 
Q 1781 781 2169 781 
Q 2563 781 2772 912 
Q 2981 1044 2981 1288 
Q 2981 1506 2839 1625 
Q 2697 1744 2272 1838 
L 1806 1941 
Q 1106 2091 782 2419 
Q 459 2747 459 3303 
Q 459 4000 909 4375 
Q 1359 4750 2203 4750 
Q 2588 4750 2994 4692 
Q 3400 4634 3834 4519 
z
" transform="scale(0.015625)"/>
      <path id="DejaVuSans-Bold-4e" d="M 588 4666 
L 1931 4666 
L 3628 1466 
L 3628 4666 
L 4769 4666 
L 4769 0 
L 3425 0 
L 1728 3200 
L 1728 0 
L 588 0 
L 588 4666 
z
" transform="scale(0.015625)"/>
      <path id="DejaVuSans-Bold-5f" d="M 3200 -916 
L 3200 -1509 
L 0 -1509 
L 0 -916 
L 3200 -916 
z
" transform="scale(0.015625)"/>
      <path id="DejaVuSans-Bold-54" d="M 31 4666 
L 4331 4666 
L 4331 3756 
L 2784 3756 
L 2784 0 
L 1581 0 
L 1581 3756 
L 31 3756 
L 31 4666 
z
" transform="scale(0.015625)"/>
     </defs>
     <use xlink:href="#DejaVuSans-Bold-53"/>
     <use xlink:href="#DejaVuSans-Bold-4e" x="72.021484"/>
     <use xlink:href="#DejaVuSans-Bold-5f" x="155.712891"/>
     <use xlink:href="#DejaVuSans-Bold-54" x="205.712891"/>
    </g>
   </g>
   <g id="text_2">
    <g id="patch_65">
     <path d="M 296.765483 168.405426 
C 300.380948 168.405426 303.848818 166.968987 306.405338 164.412468 
C 308.961857 161.855948 310.398296 158.388078 310.398296 154.772613 
C 310.398296 151.157149 308.961857 147.689279 306.405338 145.132759 
C 303.848818 142.57624 300.380948 141.139801 296.765483 141.139801 
C 293.150019 141.139801 289.682148 142.57624 287.125629 145.132759 
C 284.56911 147.689279 283.132671 151.157149 283.132671 154.772613 
C 283.132671 158.388078 284.56911 161.855948 287.125629 164.412468 
C 289.682148 166.968987 293.150019 168.405426 296.765483 168.405426 
z
" style="fill: #c3e7bd; stroke: #c3e7bd; stroke-linejoin: miter"/>
    </g>
    <!-- 0.56 -->
    <g transform="translate(285.632671 157.531988) scale(0.1 -0.1)">
     <defs>
      <path id="DejaVuSans-30" d="M 2034 4250 
Q 1547 4250 1301 3770 
Q 1056 3291 1056 2328 
Q 1056 1369 1301 889 
Q 1547 409 2034 409 
Q 2525 409 2770 889 
Q 3016 1369 3016 2328 
Q 3016 3291 2770 3770 
Q 2525 4250 2034 4250 
z
M 2034 4750 
Q 2819 4750 3233 4129 
Q 3647 3509 3647 2328 
Q 3647 1150 3233 529 
Q 2819 -91 2034 -91 
Q 1250 -91 836 529 
Q 422 1150 422 2328 
Q 422 3509 836 4129 
Q 1250 4750 2034 4750 
z
" transform="scale(0.015625)"/>
      <path id="DejaVuSans-2e" d="M 684 794 
L 1344 794 
L 1344 0 
L 684 0 
L 684 794 
z
" transform="scale(0.015625)"/>
      <path id="DejaVuSans-35" d="M 691 4666 
L 3169 4666 
L 3169 4134 
L 1269 4134 
L 1269 2991 
Q 1406 3038 1543 3061 
Q 1681 3084 1819 3084 
Q 2600 3084 3056 2656 
Q 3513 2228 3513 1497 
Q 3513 744 3044 326 
Q 2575 -91 1722 -91 
Q 1428 -91 1123 -41 
Q 819 9 494 109 
L 494 744 
Q 775 591 1075 516 
Q 1375 441 1709 441 
Q 2250 441 2565 725 
Q 2881 1009 2881 1497 
Q 2881 1984 2565 2268 
Q 2250 2553 1709 2553 
Q 1456 2553 1204 2497 
Q 953 2441 691 2322 
L 691 4666 
z
" transform="scale(0.015625)"/>
      <path id="DejaVuSans-36" d="M 2113 2584 
Q 1688 2584 1439 2293 
Q 1191 2003 1191 1497 
Q 1191 994 1439 701 
Q 1688 409 2113 409 
Q 2538 409 2786 701 
Q 3034 994 3034 1497 
Q 3034 2003 2786 2293 
Q 2538 2584 2113 2584 
z
M 3366 4563 
L 3366 3988 
Q 3128 4100 2886 4159 
Q 2644 4219 2406 4219 
Q 1781 4219 1451 3797 
Q 1122 3375 1075 2522 
Q 1259 2794 1537 2939 
Q 1816 3084 2150 3084 
Q 2853 3084 3261 2657 
Q 3669 2231 3669 1497 
Q 3669 778 3244 343 
Q 2819 -91 2113 -91 
Q 1303 -91 875 529 
Q 447 1150 447 2328 
Q 447 3434 972 4092 
Q 1497 4750 2381 4750 
Q 2619 4750 2861 4703 
Q 3103 4656 3366 4563 
z
" transform="scale(0.015625)"/>
     </defs>
     <use xlink:href="#DejaVuSans-30"/>
     <use xlink:href="#DejaVuSans-2e" x="63.623047"/>
     <use xlink:href="#DejaVuSans-35" x="95.410156"/>
     <use xlink:href="#DejaVuSans-36" x="159.033203"/>
    </g>
   </g>
   <g id="text_3">
    <g id="patch_66">
     <path d="M 359.983006 168.405426 
C 363.59847 168.405426 367.066341 166.968987 369.62286 164.412468 
C 372.179379 161.855948 373.615819 158.388078 373.615819 154.772613 
C 373.615819 151.157149 372.179379 147.689279 369.62286 145.132759 
C 367.066341 142.57624 363.59847 141.139801 359.983006 141.139801 
C 356.367542 141.139801 352.899671 142.57624 350.343152 145.132759 
C 347.786633 147.689279 346.350194 151.157149 346.350194 154.772613 
C 346.350194 158.388078 347.786633 161.855948 350.343152 164.412468 
C 352.899671 166.968987 356.367542 168.405426 359.983006 168.405426 
z
" style="fill: #d7c0dd; stroke: #d7c0dd; stroke-linejoin: miter"/>
    </g>
    <!-- 0.69 -->
    <g transform="translate(348.850194 157.531988) scale(0.1 -0.1)">
     <defs>
      <path id="DejaVuSans-39" d="M 703 97 
L 703 672 
Q 941 559 1184 500 
Q 1428 441 1663 441 
Q 2288 441 2617 861 
Q 2947 1281 2994 2138 
Q 2813 1869 2534 1725 
Q 2256 1581 1919 1581 
Q 1219 1581 811 2004 
Q 403 2428 403 3163 
Q 403 3881 828 4315 
Q 1253 4750 1959 4750 
Q 2769 4750 3195 4129 
Q 3622 3509 3622 2328 
Q 3622 1225 3098 567 
Q 2575 -91 1691 -91 
Q 1453 -91 1209 -44 
Q 966 3 703 97 
z
M 1959 2075 
Q 2384 2075 2632 2365 
Q 2881 2656 2881 3163 
Q 2881 3666 2632 3958 
Q 2384 4250 1959 4250 
Q 1534 4250 1286 3958 
Q 1038 3666 1038 3163 
Q 1038 2656 1286 2365 
Q 1534 2075 1959 2075 
z
" transform="scale(0.015625)"/>
     </defs>
     <use xlink:href="#DejaVuSans-30"/>
     <use xlink:href="#DejaVuSans-2e" x="63.623047"/>
     <use xlink:href="#DejaVuSans-36" x="95.410156"/>
     <use xlink:href="#DejaVuSans-39" x="159.033203"/>
    </g>
   </g>
   <g id="text_4">
    <g id="patch_67">
     <path d="M 423.200529 168.405426 
C 426.815993 168.405426 430.283864 166.968987 432.840383 164.412468 
C 435.396902 161.855948 436.833341 158.388078 436.833341 154.772613 
C 436.833341 151.157149 435.396902 147.689279 432.840383 145.132759 
C 430.283864 142.57624 426.815993 141.139801 423.200529 141.139801 
C 419.585065 141.139801 416.117194 142.57624 413.560675 145.132759 
C 411.004155 147.689279 409.567716 151.157149 409.567716 154.772613 
C 409.567716 158.388078 411.004155 161.855948 413.560675 164.412468 
C 416.117194 166.968987 419.585065 168.405426 423.200529 168.405426 
z
" style="fill: #c3e7bd; stroke: #c3e7bd; stroke-linejoin: miter"/>
    </g>
    <!-- 0.56 -->
    <g transform="translate(412.067716 157.531988) scale(0.1 -0.1)">
     <use xlink:href="#DejaVuSans-30"/>
     <use xlink:href="#DejaVuSans-2e" x="63.623047"/>
     <use xlink:href="#DejaVuSans-35" x="95.410156"/>
     <use xlink:href="#DejaVuSans-36" x="159.033203"/>
    </g>
   </g>
   <g id="text_5">
    <g id="patch_68">
     <path d="M 486.418051 168.405426 
C 490.033515 168.405426 493.501386 166.968987 496.057906 164.412468 
C 498.614425 161.855948 500.050864 158.388078 500.050864 154.772613 
C 500.050864 151.157149 498.614425 147.689279 496.057906 145.132759 
C 493.501386 142.57624 490.033515 141.139801 486.418051 141.139801 
C 482.802587 141.139801 479.334716 142.57624 476.778197 145.132759 
C 474.221678 147.689279 472.785239 151.157149 472.785239 154.772613 
C 472.785239 158.388078 474.221678 161.855948 476.778197 164.412468 
C 479.334716 166.968987 482.802587 168.405426 486.418051 168.405426 
z
" style="fill: #c3e7bd; stroke: #c3e7bd; stroke-linejoin: miter"/>
    </g>
    <!-- 0.56 -->
    <g transform="translate(475.285239 157.531988) scale(0.1 -0.1)">
     <use xlink:href="#DejaVuSans-30"/>
     <use xlink:href="#DejaVuSans-2e" x="63.623047"/>
     <use xlink:href="#DejaVuSans-35" x="95.410156"/>
     <use xlink:href="#DejaVuSans-36" x="159.033203"/>
    </g>
   </g>
   <g id="text_6">
    <g id="patch_69">
     <path d="M 549.635574 168.405426 
C 553.251038 168.405426 556.718909 166.968987 559.275428 164.412468 
C 561.831947 161.855948 563.268387 158.388078 563.268387 154.772613 
C 563.268387 151.157149 561.831947 147.689279 559.275428 145.132759 
C 556.718909 142.57624 553.251038 141.139801 549.635574 141.139801 
C 546.02011 141.139801 542.552239 142.57624 539.99572 145.132759 
C 537.439201 147.689279 536.002762 151.157149 536.002762 154.772613 
C 536.002762 158.388078 537.439201 161.855948 539.99572 164.412468 
C 542.552239 166.968987 546.02011 168.405426 549.635574 168.405426 
z
" style="fill: #c3e7bd; stroke: #c3e7bd; stroke-linejoin: miter"/>
    </g>
    <!-- 0.40 -->
    <g transform="translate(538.502762 157.531988) scale(0.1 -0.1)">
     <defs>
      <path id="DejaVuSans-34" d="M 2419 4116 
L 825 1625 
L 2419 1625 
L 2419 4116 
z
M 2253 4666 
L 3047 4666 
L 3047 1625 
L 3713 1625 
L 3713 1100 
L 3047 1100 
L 3047 0 
L 2419 0 
L 2419 1100 
L 313 1100 
L 313 1709 
L 2253 4666 
z
" transform="scale(0.015625)"/>
     </defs>
     <use xlink:href="#DejaVuSans-30"/>
     <use xlink:href="#DejaVuSans-2e" x="63.623047"/>
     <use xlink:href="#DejaVuSans-34" x="95.410156"/>
     <use xlink:href="#DejaVuSans-30" x="159.033203"/>
    </g>
   </g>
   <g id="text_7">
    <g id="patch_70">
     <path d="M 612.853097 168.405426 
C 616.468561 168.405426 619.936432 166.968987 622.492951 164.412468 
C 625.04947 161.855948 626.485909 158.388078 626.485909 154.772613 
C 626.485909 151.157149 625.04947 147.689279 622.492951 145.132759 
C 619.936432 142.57624 616.468561 141.139801 612.853097 141.139801 
C 609.237633 141.139801 605.769762 142.57624 603.213243 145.132759 
C 600.656723 147.689279 599.220284 151.157149 599.220284 154.772613 
C 599.220284 158.388078 600.656723 161.855948 603.213243 164.412468 
C 605.769762 166.968987 609.237633 168.405426 612.853097 168.405426 
z
" style="fill: #d7c0dd; stroke: #d7c0dd; stroke-linejoin: miter"/>
    </g>
    <!-- 0.57 -->
    <g transform="translate(601.720284 157.531988) scale(0.1 -0.1)">
     <defs>
      <path id="DejaVuSans-37" d="M 525 4666 
L 3525 4666 
L 3525 4397 
L 1831 0 
L 1172 0 
L 2766 4134 
L 525 4134 
L 525 4666 
z
" transform="scale(0.015625)"/>
     </defs>
     <use xlink:href="#DejaVuSans-30"/>
     <use xlink:href="#DejaVuSans-2e" x="63.623047"/>
     <use xlink:href="#DejaVuSans-35" x="95.410156"/>
     <use xlink:href="#DejaVuSans-37" x="159.033203"/>
    </g>
   </g>
   <g id="text_8">
    <g id="patch_71">
     <path d="M 676.070619 168.405426 
C 679.686083 168.405426 683.153954 166.968987 685.710474 164.412468 
C 688.266993 161.855948 689.703432 158.388078 689.703432 154.772613 
C 689.703432 151.157149 688.266993 147.689279 685.710474 145.132759 
C 683.153954 142.57624 679.686083 141.139801 676.070619 141.139801 
C 672.455155 141.139801 668.987284 142.57624 666.430765 145.132759 
C 663.874246 147.689279 662.437807 151.157149 662.437807 154.772613 
C 662.437807 158.388078 663.874246 161.855948 666.430765 164.412468 
C 668.987284 166.968987 672.455155 168.405426 676.070619 168.405426 
z
" style="fill: #d7c0dd; stroke: #d7c0dd; stroke-linejoin: miter"/>
    </g>
    <!-- 1.00 -->
    <g transform="translate(664.937807 157.531988) scale(0.1 -0.1)">
     <defs>
      <path id="DejaVuSans-31" d="M 794 531 
L 1825 531 
L 1825 4091 
L 703 3866 
L 703 4441 
L 1819 4666 
L 2450 4666 
L 2450 531 
L 3481 531 
L 3481 0 
L 794 0 
L 794 531 
z
" transform="scale(0.015625)"/>
     </defs>
     <use xlink:href="#DejaVuSans-31"/>
     <use xlink:href="#DejaVuSans-2e" x="63.623047"/>
     <use xlink:href="#DejaVuSans-30" x="95.410156"/>
     <use xlink:href="#DejaVuSans-30" x="159.033203"/>
    </g>
   </g>
   <g id="text_9">
    <g id="patch_72">
     <path d="M 739.288142 168.405426 
C 742.903606 168.405426 746.371477 166.968987 748.927996 164.412468 
C 751.484515 161.855948 752.920954 158.388078 752.920954 154.772613 
C 752.920954 151.157149 751.484515 147.689279 748.927996 145.132759 
C 746.371477 142.57624 742.903606 141.139801 739.288142 141.139801 
C 735.672678 141.139801 732.204807 142.57624 729.648288 145.132759 
C 727.091769 147.689279 725.655329 151.157149 725.655329 154.772613 
C 725.655329 158.388078 727.091769 161.855948 729.648288 164.412468 
C 732.204807 166.968987 735.672678 168.405426 739.288142 168.405426 
z
" style="fill: #d7c0dd; stroke: #d7c0dd; stroke-linejoin: miter"/>
    </g>
    <!-- 0.84 -->
    <g transform="translate(728.155329 157.531988) scale(0.1 -0.1)">
     <defs>
      <path id="DejaVuSans-38" d="M 2034 2216 
Q 1584 2216 1326 1975 
Q 1069 1734 1069 1313 
Q 1069 891 1326 650 
Q 1584 409 2034 409 
Q 2484 409 2743 651 
Q 3003 894 3003 1313 
Q 3003 1734 2745 1975 
Q 2488 2216 2034 2216 
z
M 1403 2484 
Q 997 2584 770 2862 
Q 544 3141 544 3541 
Q 544 4100 942 4425 
Q 1341 4750 2034 4750 
Q 2731 4750 3128 4425 
Q 3525 4100 3525 3541 
Q 3525 3141 3298 2862 
Q 3072 2584 2669 2484 
Q 3125 2378 3379 2068 
Q 3634 1759 3634 1313 
Q 3634 634 3220 271 
Q 2806 -91 2034 -91 
Q 1263 -91 848 271 
Q 434 634 434 1313 
Q 434 1759 690 2068 
Q 947 2378 1403 2484 
z
M 1172 3481 
Q 1172 3119 1398 2916 
Q 1625 2713 2034 2713 
Q 2441 2713 2670 2916 
Q 2900 3119 2900 3481 
Q 2900 3844 2670 4047 
Q 2441 4250 2034 4250 
Q 1625 4250 1398 4047 
Q 1172 3844 1172 3481 
z
" transform="scale(0.015625)"/>
     </defs>
     <use xlink:href="#DejaVuSans-30"/>
     <use xlink:href="#DejaVuSans-2e" x="63.623047"/>
     <use xlink:href="#DejaVuSans-38" x="95.410156"/>
     <use xlink:href="#DejaVuSans-34" x="159.033203"/>
    </g>
   </g>
   <g id="text_10">
    <g id="patch_73">
     <path d="M 802.505665 168.405426 
C 806.121129 168.405426 809.589 166.968987 812.145519 164.412468 
C 814.702038 161.855948 816.138477 158.388078 816.138477 154.772613 
C 816.138477 151.157149 814.702038 147.689279 812.145519 145.132759 
C 809.589 142.57624 806.121129 141.139801 802.505665 141.139801 
C 798.890201 141.139801 795.42233 142.57624 792.86581 145.132759 
C 790.309291 147.689279 788.872852 151.157149 788.872852 154.772613 
C 788.872852 158.388078 790.309291 161.855948 792.86581 164.412468 
C 795.42233 166.968987 798.890201 168.405426 802.505665 168.405426 
z
" style="fill: #c3e7bd; stroke: #c3e7bd; stroke-linejoin: miter"/>
    </g>
    <!-- 0.09 -->
    <g transform="translate(791.372852 157.531988) scale(0.1 -0.1)">
     <use xlink:href="#DejaVuSans-30"/>
     <use xlink:href="#DejaVuSans-2e" x="63.623047"/>
     <use xlink:href="#DejaVuSans-30" x="95.410156"/>
     <use xlink:href="#DejaVuSans-39" x="159.033203"/>
    </g>
   </g>
   <g id="text_11">
    <g id="patch_74">
     <path d="M 865.723187 168.405426 
C 869.338651 168.405426 872.806522 166.968987 875.363041 164.412468 
C 877.919561 161.855948 879.356 158.388078 879.356 154.772613 
C 879.356 151.157149 877.919561 147.689279 875.363041 145.132759 
C 872.806522 142.57624 869.338651 141.139801 865.723187 141.139801 
C 862.107723 141.139801 858.639852 142.57624 856.083333 145.132759 
C 853.526814 147.689279 852.090375 151.157149 852.090375 154.772613 
C 852.090375 158.388078 853.526814 161.855948 856.083333 164.412468 
C 858.639852 166.968987 862.107723 168.405426 865.723187 168.405426 
z
" style="fill: #d7c0dd; stroke: #d7c0dd; stroke-linejoin: miter"/>
    </g>
    <!-- 0.29 -->
    <g transform="translate(854.590375 157.531988) scale(0.1 -0.1)">
     <defs>
      <path id="DejaVuSans-32" d="M 1228 531 
L 3431 531 
L 3431 0 
L 469 0 
L 469 531 
Q 828 903 1448 1529 
Q 2069 2156 2228 2338 
Q 2531 2678 2651 2914 
Q 2772 3150 2772 3378 
Q 2772 3750 2511 3984 
Q 2250 4219 1831 4219 
Q 1534 4219 1204 4116 
Q 875 4013 500 3803 
L 500 4441 
Q 881 4594 1212 4672 
Q 1544 4750 1819 4750 
Q 2544 4750 2975 4387 
Q 3406 4025 3406 3419 
Q 3406 3131 3298 2873 
Q 3191 2616 2906 2266 
Q 2828 2175 2409 1742 
Q 1991 1309 1228 531 
z
" transform="scale(0.015625)"/>
     </defs>
     <use xlink:href="#DejaVuSans-30"/>
     <use xlink:href="#DejaVuSans-2e" x="63.623047"/>
     <use xlink:href="#DejaVuSans-32" x="95.410156"/>
     <use xlink:href="#DejaVuSans-39" x="159.033203"/>
    </g>
   </g>
   <g id="text_12">
    <g id="patch_75">
     <path d="M 928.94071 168.405426 
C 932.556174 168.405426 936.024045 166.968987 938.580564 164.412468 
C 941.137083 161.855948 942.573522 158.388078 942.573522 154.772613 
C 942.573522 151.157149 941.137083 147.689279 938.580564 145.132759 
C 936.024045 142.57624 932.556174 141.139801 928.94071 141.139801 
C 925.325246 141.139801 921.857375 142.57624 919.300856 145.132759 
C 916.744337 147.689279 915.307897 151.157149 915.307897 154.772613 
C 915.307897 158.388078 916.744337 161.855948 919.300856 164.412468 
C 921.857375 166.968987 925.325246 168.405426 928.94071 168.405426 
z
" style="fill: #d7c0dd; stroke: #d7c0dd; stroke-linejoin: miter"/>
    </g>
    <!-- 0.89 -->
    <g transform="translate(917.807897 157.531988) scale(0.1 -0.1)">
     <use xlink:href="#DejaVuSans-30"/>
     <use xlink:href="#DejaVuSans-2e" x="63.623047"/>
     <use xlink:href="#DejaVuSans-38" x="95.410156"/>
     <use xlink:href="#DejaVuSans-39" x="159.033203"/>
    </g>
   </g>
   <g id="text_13">
    <g id="patch_76">
     <path d="M 992.158233 168.405426 
C 995.773697 168.405426 999.241568 166.968987 1001.798087 164.412468 
C 1004.354606 161.855948 1005.791045 158.388078 1005.791045 154.772613 
C 1005.791045 151.157149 1004.354606 147.689279 1001.798087 145.132759 
C 999.241568 142.57624 995.773697 141.139801 992.158233 141.139801 
C 988.542768 141.139801 985.074898 142.57624 982.518378 145.132759 
C 979.961859 147.689279 978.52542 151.157149 978.52542 154.772613 
C 978.52542 158.388078 979.961859 161.855948 982.518378 164.412468 
C 985.074898 166.968987 988.542768 168.405426 992.158233 168.405426 
z
" style="fill: #d7c0dd; stroke: #d7c0dd; stroke-linejoin: miter"/>
    </g>
    <!-- 0.96 -->
    <g transform="translate(981.02542 157.531988) scale(0.1 -0.1)">
     <use xlink:href="#DejaVuSans-30"/>
     <use xlink:href="#DejaVuSans-2e" x="63.623047"/>
     <use xlink:href="#DejaVuSans-39" x="95.410156"/>
     <use xlink:href="#DejaVuSans-36" x="159.033203"/>
    </g>
   </g>
   <g id="text_14">
    <!-- SN_F -->
    <g transform="translate(179.813066 206.282313) scale(0.1 -0.1)">
     <defs>
      <path id="DejaVuSans-Bold-46" d="M 588 4666 
L 3834 4666 
L 3834 3756 
L 1791 3756 
L 1791 2888 
L 3713 2888 
L 3713 1978 
L 1791 1978 
L 1791 0 
L 588 0 
L 588 4666 
z
" transform="scale(0.015625)"/>
     </defs>
     <use xlink:href="#DejaVuSans-Bold-53"/>
     <use xlink:href="#DejaVuSans-Bold-4e" x="72.021484"/>
     <use xlink:href="#DejaVuSans-Bold-5f" x="155.712891"/>
     <use xlink:href="#DejaVuSans-Bold-46" x="205.712891"/>
    </g>
   </g>
   <g id="text_15">
    <g id="patch_77">
     <path d="M 296.765483 217.383095 
C 300.380948 217.383095 303.848818 215.946656 306.405338 213.390136 
C 308.961857 210.833617 310.398296 207.365746 310.398296 203.750282 
C 310.398296 200.134818 308.961857 196.666947 306.405338 194.110428 
C 303.848818 191.553909 300.380948 190.11747 296.765483 190.11747 
C 293.150019 190.11747 289.682148 191.553909 287.125629 194.110428 
C 284.56911 196.666947 283.132671 200.134818 283.132671 203.750282 
C 283.132671 207.365746 284.56911 210.833617 287.125629 213.390136 
C 289.682148 215.946656 293.150019 217.383095 296.765483 217.383095 
z
" style="fill: #d7c0dd; stroke: #d7c0dd; stroke-linejoin: miter"/>
    </g>
    <!-- 0.55 -->
    <g transform="translate(285.632671 206.509657) scale(0.1 -0.1)">
     <use xlink:href="#DejaVuSans-30"/>
     <use xlink:href="#DejaVuSans-2e" x="63.623047"/>
     <use xlink:href="#DejaVuSans-35" x="95.410156"/>
     <use xlink:href="#DejaVuSans-35" x="159.033203"/>
    </g>
   </g>
   <g id="text_16">
    <g id="patch_78">
     <path d="M 359.983006 217.383095 
C 363.59847 217.383095 367.066341 215.946656 369.62286 213.390136 
C 372.179379 210.833617 373.615819 207.365746 373.615819 203.750282 
C 373.615819 200.134818 372.179379 196.666947 369.62286 194.110428 
C 367.066341 191.553909 363.59847 190.11747 359.983006 190.11747 
C 356.367542 190.11747 352.899671 191.553909 350.343152 194.110428 
C 347.786633 196.666947 346.350194 200.134818 346.350194 203.750282 
C 346.350194 207.365746 347.786633 210.833617 350.343152 213.390136 
C 352.899671 215.946656 356.367542 217.383095 359.983006 217.383095 
z
" style="fill: #c3e7bd; stroke: #c3e7bd; stroke-linejoin: miter"/>
    </g>
    <!-- 0.71 -->
    <g transform="translate(348.850194 206.509657) scale(0.1 -0.1)">
     <use xlink:href="#DejaVuSans-30"/>
     <use xlink:href="#DejaVuSans-2e" x="63.623047"/>
     <use xlink:href="#DejaVuSans-37" x="95.410156"/>
     <use xlink:href="#DejaVuSans-31" x="159.033203"/>
    </g>
   </g>
   <g id="text_17">
    <g id="patch_79">
     <path d="M 423.200529 217.383095 
C 426.815993 217.383095 430.283864 215.946656 432.840383 213.390136 
C 435.396902 210.833617 436.833341 207.365746 436.833341 203.750282 
C 436.833341 200.134818 435.396902 196.666947 432.840383 194.110428 
C 430.283864 191.553909 426.815993 190.11747 423.200529 190.11747 
C 419.585065 190.11747 416.117194 191.553909 413.560675 194.110428 
C 411.004155 196.666947 409.567716 200.134818 409.567716 203.750282 
C 409.567716 207.365746 411.004155 210.833617 413.560675 213.390136 
C 416.117194 215.946656 419.585065 217.383095 423.200529 217.383095 
z
" style="fill: #d7c0dd; stroke: #d7c0dd; stroke-linejoin: miter"/>
    </g>
    <!-- 0.50 -->
    <g transform="translate(412.067716 206.509657) scale(0.1 -0.1)">
     <use xlink:href="#DejaVuSans-30"/>
     <use xlink:href="#DejaVuSans-2e" x="63.623047"/>
     <use xlink:href="#DejaVuSans-35" x="95.410156"/>
     <use xlink:href="#DejaVuSans-30" x="159.033203"/>
    </g>
   </g>
   <g id="text_18">
    <g id="patch_80">
     <path d="M 486.418051 217.383095 
C 490.033515 217.383095 493.501386 215.946656 496.057906 213.390136 
C 498.614425 210.833617 500.050864 207.365746 500.050864 203.750282 
C 500.050864 200.134818 498.614425 196.666947 496.057906 194.110428 
C 493.501386 191.553909 490.033515 190.11747 486.418051 190.11747 
C 482.802587 190.11747 479.334716 191.553909 476.778197 194.110428 
C 474.221678 196.666947 472.785239 200.134818 472.785239 203.750282 
C 472.785239 207.365746 474.221678 210.833617 476.778197 213.390136 
C 479.334716 215.946656 482.802587 217.383095 486.418051 217.383095 
z
" style="fill: #d7c0dd; stroke: #d7c0dd; stroke-linejoin: miter"/>
    </g>
    <!-- 0.54 -->
    <g transform="translate(475.285239 206.509657) scale(0.1 -0.1)">
     <use xlink:href="#DejaVuSans-30"/>
     <use xlink:href="#DejaVuSans-2e" x="63.623047"/>
     <use xlink:href="#DejaVuSans-35" x="95.410156"/>
     <use xlink:href="#DejaVuSans-34" x="159.033203"/>
    </g>
   </g>
   <g id="text_19">
    <g id="patch_81">
     <path d="M 549.635574 217.383095 
C 553.251038 217.383095 556.718909 215.946656 559.275428 213.390136 
C 561.831947 210.833617 563.268387 207.365746 563.268387 203.750282 
C 563.268387 200.134818 561.831947 196.666947 559.275428 194.110428 
C 556.718909 191.553909 553.251038 190.11747 549.635574 190.11747 
C 546.02011 190.11747 542.552239 191.553909 539.99572 194.110428 
C 537.439201 196.666947 536.002762 200.134818 536.002762 203.750282 
C 536.002762 207.365746 537.439201 210.833617 539.99572 213.390136 
C 542.552239 215.946656 546.02011 217.383095 549.635574 217.383095 
z
" style="fill: #d7c0dd; stroke: #d7c0dd; stroke-linejoin: miter"/>
    </g>
    <!-- 0.33 -->
    <g transform="translate(538.502762 206.509657) scale(0.1 -0.1)">
     <defs>
      <path id="DejaVuSans-33" d="M 2597 2516 
Q 3050 2419 3304 2112 
Q 3559 1806 3559 1356 
Q 3559 666 3084 287 
Q 2609 -91 1734 -91 
Q 1441 -91 1130 -33 
Q 819 25 488 141 
L 488 750 
Q 750 597 1062 519 
Q 1375 441 1716 441 
Q 2309 441 2620 675 
Q 2931 909 2931 1356 
Q 2931 1769 2642 2001 
Q 2353 2234 1838 2234 
L 1294 2234 
L 1294 2753 
L 1863 2753 
Q 2328 2753 2575 2939 
Q 2822 3125 2822 3475 
Q 2822 3834 2567 4026 
Q 2313 4219 1838 4219 
Q 1578 4219 1281 4162 
Q 984 4106 628 3988 
L 628 4550 
Q 988 4650 1302 4700 
Q 1616 4750 1894 4750 
Q 2613 4750 3031 4423 
Q 3450 4097 3450 3541 
Q 3450 3153 3228 2886 
Q 3006 2619 2597 2516 
z
" transform="scale(0.015625)"/>
     </defs>
     <use xlink:href="#DejaVuSans-30"/>
     <use xlink:href="#DejaVuSans-2e" x="63.623047"/>
     <use xlink:href="#DejaVuSans-33" x="95.410156"/>
     <use xlink:href="#DejaVuSans-33" x="159.033203"/>
    </g>
   </g>
   <g id="text_20">
    <g id="patch_82">
     <path d="M 612.853097 217.383095 
C 616.468561 217.383095 619.936432 215.946656 622.492951 213.390136 
C 625.04947 210.833617 626.485909 207.365746 626.485909 203.750282 
C 626.485909 200.134818 625.04947 196.666947 622.492951 194.110428 
C 619.936432 191.553909 616.468561 190.11747 612.853097 190.11747 
C 609.237633 190.11747 605.769762 191.553909 603.213243 194.110428 
C 600.656723 196.666947 599.220284 200.134818 599.220284 203.750282 
C 599.220284 207.365746 600.656723 210.833617 603.213243 213.390136 
C 605.769762 215.946656 609.237633 217.383095 612.853097 217.383095 
z
" style="fill: #c3e7bd; stroke: #c3e7bd; stroke-linejoin: miter"/>
    </g>
    <!-- 0.58 -->
    <g transform="translate(601.720284 206.509657) scale(0.1 -0.1)">
     <use xlink:href="#DejaVuSans-30"/>
     <use xlink:href="#DejaVuSans-2e" x="63.623047"/>
     <use xlink:href="#DejaVuSans-35" x="95.410156"/>
     <use xlink:href="#DejaVuSans-38" x="159.033203"/>
    </g>
   </g>
   <g id="text_21">
    <g id="patch_83">
     <path d="M 676.070619 217.383095 
C 679.686083 217.383095 683.153954 215.946656 685.710474 213.390136 
C 688.266993 210.833617 689.703432 207.365746 689.703432 203.750282 
C 689.703432 200.134818 688.266993 196.666947 685.710474 194.110428 
C 683.153954 191.553909 679.686083 190.11747 676.070619 190.11747 
C 672.455155 190.11747 668.987284 191.553909 666.430765 194.110428 
C 663.874246 196.666947 662.437807 200.134818 662.437807 203.750282 
C 662.437807 207.365746 663.874246 210.833617 666.430765 213.390136 
C 668.987284 215.946656 672.455155 217.383095 676.070619 217.383095 
z
" style="fill: #c3e7bd; stroke: #c3e7bd; stroke-linejoin: miter"/>
    </g>
    <!-- 1.00 -->
    <g transform="translate(664.937807 206.509657) scale(0.1 -0.1)">
     <use xlink:href="#DejaVuSans-31"/>
     <use xlink:href="#DejaVuSans-2e" x="63.623047"/>
     <use xlink:href="#DejaVuSans-30" x="95.410156"/>
     <use xlink:href="#DejaVuSans-30" x="159.033203"/>
    </g>
   </g>
   <g id="text_22">
    <g id="patch_84">
     <path d="M 739.288142 217.383095 
C 742.903606 217.383095 746.371477 215.946656 748.927996 213.390136 
C 751.484515 210.833617 752.920954 207.365746 752.920954 203.750282 
C 752.920954 200.134818 751.484515 196.666947 748.927996 194.110428 
C 746.371477 191.553909 742.903606 190.11747 739.288142 190.11747 
C 735.672678 190.11747 732.204807 191.553909 729.648288 194.110428 
C 727.091769 196.666947 725.655329 200.134818 725.655329 203.750282 
C 725.655329 207.365746 727.091769 210.833617 729.648288 213.390136 
C 732.204807 215.946656 735.672678 217.383095 739.288142 217.383095 
z
" style="fill: #c3e7bd; stroke: #c3e7bd; stroke-linejoin: miter"/>
    </g>
    <!-- 0.84 -->
    <g transform="translate(728.155329 206.509657) scale(0.1 -0.1)">
     <use xlink:href="#DejaVuSans-30"/>
     <use xlink:href="#DejaVuSans-2e" x="63.623047"/>
     <use xlink:href="#DejaVuSans-38" x="95.410156"/>
     <use xlink:href="#DejaVuSans-34" x="159.033203"/>
    </g>
   </g>
   <g id="text_23">
    <g id="patch_85">
     <path d="M 802.505665 217.383095 
C 806.121129 217.383095 809.589 215.946656 812.145519 213.390136 
C 814.702038 210.833617 816.138477 207.365746 816.138477 203.750282 
C 816.138477 200.134818 814.702038 196.666947 812.145519 194.110428 
C 809.589 191.553909 806.121129 190.11747 802.505665 190.11747 
C 798.890201 190.11747 795.42233 191.553909 792.86581 194.110428 
C 790.309291 196.666947 788.872852 200.134818 788.872852 203.750282 
C 788.872852 207.365746 790.309291 210.833617 792.86581 213.390136 
C 795.42233 215.946656 798.890201 217.383095 802.505665 217.383095 
z
" style="fill: #d7c0dd; stroke: #d7c0dd; stroke-linejoin: miter"/>
    </g>
    <!-- 0.09 -->
    <g transform="translate(791.372852 206.509657) scale(0.1 -0.1)">
     <use xlink:href="#DejaVuSans-30"/>
     <use xlink:href="#DejaVuSans-2e" x="63.623047"/>
     <use xlink:href="#DejaVuSans-30" x="95.410156"/>
     <use xlink:href="#DejaVuSans-39" x="159.033203"/>
    </g>
   </g>
   <g id="text_24">
    <g id="patch_86">
     <path d="M 865.723187 217.383095 
C 869.338651 217.383095 872.806522 215.946656 875.363041 213.390136 
C 877.919561 210.833617 879.356 207.365746 879.356 203.750282 
C 879.356 200.134818 877.919561 196.666947 875.363041 194.110428 
C 872.806522 191.553909 869.338651 190.11747 865.723187 190.11747 
C 862.107723 190.11747 858.639852 191.553909 856.083333 194.110428 
C 853.526814 196.666947 852.090375 200.134818 852.090375 203.750282 
C 852.090375 207.365746 853.526814 210.833617 856.083333 213.390136 
C 858.639852 215.946656 862.107723 217.383095 865.723187 217.383095 
z
" style="fill: #c3e7bd; stroke: #c3e7bd; stroke-linejoin: miter"/>
    </g>
    <!-- 0.31 -->
    <g transform="translate(854.590375 206.509657) scale(0.1 -0.1)">
     <use xlink:href="#DejaVuSans-30"/>
     <use xlink:href="#DejaVuSans-2e" x="63.623047"/>
     <use xlink:href="#DejaVuSans-33" x="95.410156"/>
     <use xlink:href="#DejaVuSans-31" x="159.033203"/>
    </g>
   </g>
   <g id="text_25">
    <g id="patch_87">
     <path d="M 928.94071 217.383095 
C 932.556174 217.383095 936.024045 215.946656 938.580564 213.390136 
C 941.137083 210.833617 942.573522 207.365746 942.573522 203.750282 
C 942.573522 200.134818 941.137083 196.666947 938.580564 194.110428 
C 936.024045 191.553909 932.556174 190.11747 928.94071 190.11747 
C 925.325246 190.11747 921.857375 191.553909 919.300856 194.110428 
C 916.744337 196.666947 915.307897 200.134818 915.307897 203.750282 
C 915.307897 207.365746 916.744337 210.833617 919.300856 213.390136 
C 921.857375 215.946656 925.325246 217.383095 928.94071 217.383095 
z
" style="fill: #c3e7bd; stroke: #c3e7bd; stroke-linejoin: miter"/>
    </g>
    <!-- 0.90 -->
    <g transform="translate(917.807897 206.509657) scale(0.1 -0.1)">
     <use xlink:href="#DejaVuSans-30"/>
     <use xlink:href="#DejaVuSans-2e" x="63.623047"/>
     <use xlink:href="#DejaVuSans-39" x="95.410156"/>
     <use xlink:href="#DejaVuSans-30" x="159.033203"/>
    </g>
   </g>
   <g id="text_26">
    <g id="patch_88">
     <path d="M 992.158233 217.383095 
C 995.773697 217.383095 999.241568 215.946656 1001.798087 213.390136 
C 1004.354606 210.833617 1005.791045 207.365746 1005.791045 203.750282 
C 1005.791045 200.134818 1004.354606 196.666947 1001.798087 194.110428 
C 999.241568 191.553909 995.773697 190.11747 992.158233 190.11747 
C 988.542768 190.11747 985.074898 191.553909 982.518378 194.110428 
C 979.961859 196.666947 978.52542 200.134818 978.52542 203.750282 
C 978.52542 207.365746 979.961859 210.833617 982.518378 213.390136 
C 985.074898 215.946656 988.542768 217.383095 992.158233 217.383095 
z
" style="fill: #c3e7bd; stroke: #c3e7bd; stroke-linejoin: miter"/>
    </g>
    <!-- 0.97 -->
    <g transform="translate(981.02542 206.509657) scale(0.1 -0.1)">
     <use xlink:href="#DejaVuSans-30"/>
     <use xlink:href="#DejaVuSans-2e" x="63.623047"/>
     <use xlink:href="#DejaVuSans-39" x="95.410156"/>
     <use xlink:href="#DejaVuSans-37" x="159.033203"/>
    </g>
   </g>
   <g id="text_27">
    <!-- Method -->
    <g transform="translate(179.813066 108.55432) scale(0.1 -0.1)">
     <defs>
      <path id="DejaVuSans-Bold-4d" d="M 588 4666 
L 2119 4666 
L 3181 2169 
L 4250 4666 
L 5778 4666 
L 5778 0 
L 4641 0 
L 4641 3413 
L 3566 897 
L 2803 897 
L 1728 3413 
L 1728 0 
L 588 0 
L 588 4666 
z
" transform="scale(0.015625)"/>
      <path id="DejaVuSans-Bold-65" d="M 4031 1759 
L 4031 1441 
L 1416 1441 
Q 1456 1047 1700 850 
Q 1944 653 2381 653 
Q 2734 653 3104 758 
Q 3475 863 3866 1075 
L 3866 213 
Q 3469 63 3072 -14 
Q 2675 -91 2278 -91 
Q 1328 -91 801 392 
Q 275 875 275 1747 
Q 275 2603 792 3093 
Q 1309 3584 2216 3584 
Q 3041 3584 3536 3087 
Q 4031 2591 4031 1759 
z
M 2881 2131 
Q 2881 2450 2695 2645 
Q 2509 2841 2209 2841 
Q 1884 2841 1681 2658 
Q 1478 2475 1428 2131 
L 2881 2131 
z
" transform="scale(0.015625)"/>
      <path id="DejaVuSans-Bold-74" d="M 1759 4494 
L 1759 3500 
L 2913 3500 
L 2913 2700 
L 1759 2700 
L 1759 1216 
Q 1759 972 1856 886 
Q 1953 800 2241 800 
L 2816 800 
L 2816 0 
L 1856 0 
Q 1194 0 917 276 
Q 641 553 641 1216 
L 641 2700 
L 84 2700 
L 84 3500 
L 641 3500 
L 641 4494 
L 1759 4494 
z
" transform="scale(0.015625)"/>
      <path id="DejaVuSans-Bold-68" d="M 4056 2131 
L 4056 0 
L 2931 0 
L 2931 347 
L 2931 1625 
Q 2931 2084 2911 2256 
Q 2891 2428 2841 2509 
Q 2775 2619 2662 2680 
Q 2550 2741 2406 2741 
Q 2056 2741 1856 2470 
Q 1656 2200 1656 1722 
L 1656 0 
L 538 0 
L 538 4863 
L 1656 4863 
L 1656 2988 
Q 1909 3294 2193 3439 
Q 2478 3584 2822 3584 
Q 3428 3584 3742 3212 
Q 4056 2841 4056 2131 
z
" transform="scale(0.015625)"/>
      <path id="DejaVuSans-Bold-6f" d="M 2203 2784 
Q 1831 2784 1636 2517 
Q 1441 2250 1441 1747 
Q 1441 1244 1636 976 
Q 1831 709 2203 709 
Q 2569 709 2762 976 
Q 2956 1244 2956 1747 
Q 2956 2250 2762 2517 
Q 2569 2784 2203 2784 
z
M 2203 3584 
Q 3106 3584 3614 3096 
Q 4122 2609 4122 1747 
Q 4122 884 3614 396 
Q 3106 -91 2203 -91 
Q 1297 -91 786 396 
Q 275 884 275 1747 
Q 275 2609 786 3096 
Q 1297 3584 2203 3584 
z
" transform="scale(0.015625)"/>
      <path id="DejaVuSans-Bold-64" d="M 2919 2988 
L 2919 4863 
L 4044 4863 
L 4044 0 
L 2919 0 
L 2919 506 
Q 2688 197 2409 53 
Q 2131 -91 1766 -91 
Q 1119 -91 703 423 
Q 288 938 288 1747 
Q 288 2556 703 3070 
Q 1119 3584 1766 3584 
Q 2128 3584 2408 3439 
Q 2688 3294 2919 2988 
z
M 2181 722 
Q 2541 722 2730 984 
Q 2919 1247 2919 1747 
Q 2919 2247 2730 2509 
Q 2541 2772 2181 2772 
Q 1825 2772 1636 2509 
Q 1447 2247 1447 1747 
Q 1447 1247 1636 984 
Q 1825 722 2181 722 
z
" transform="scale(0.015625)"/>
     </defs>
     <use xlink:href="#DejaVuSans-Bold-4d"/>
     <use xlink:href="#DejaVuSans-Bold-65" x="99.511719"/>
     <use xlink:href="#DejaVuSans-Bold-74" x="167.333984"/>
     <use xlink:href="#DejaVuSans-Bold-68" x="215.136719"/>
     <use xlink:href="#DejaVuSans-Bold-6f" x="286.328125"/>
     <use xlink:href="#DejaVuSans-Bold-64" x="355.029297"/>
    </g>
   </g>
   <g id="text_28">
    <!-- Isolated -->
    <g transform="translate(276.962358 102.955414) scale(0.1 -0.1)">
     <defs>
      <path id="DejaVuSans-49" d="M 628 4666 
L 1259 4666 
L 1259 0 
L 628 0 
L 628 4666 
z
" transform="scale(0.015625)"/>
      <path id="DejaVuSans-73" d="M 2834 3397 
L 2834 2853 
Q 2591 2978 2328 3040 
Q 2066 3103 1784 3103 
Q 1356 3103 1142 2972 
Q 928 2841 928 2578 
Q 928 2378 1081 2264 
Q 1234 2150 1697 2047 
L 1894 2003 
Q 2506 1872 2764 1633 
Q 3022 1394 3022 966 
Q 3022 478 2636 193 
Q 2250 -91 1575 -91 
Q 1294 -91 989 -36 
Q 684 19 347 128 
L 347 722 
Q 666 556 975 473 
Q 1284 391 1588 391 
Q 1994 391 2212 530 
Q 2431 669 2431 922 
Q 2431 1156 2273 1281 
Q 2116 1406 1581 1522 
L 1381 1569 
Q 847 1681 609 1914 
Q 372 2147 372 2553 
Q 372 3047 722 3315 
Q 1072 3584 1716 3584 
Q 2034 3584 2315 3537 
Q 2597 3491 2834 3397 
z
" transform="scale(0.015625)"/>
      <path id="DejaVuSans-6f" d="M 1959 3097 
Q 1497 3097 1228 2736 
Q 959 2375 959 1747 
Q 959 1119 1226 758 
Q 1494 397 1959 397 
Q 2419 397 2687 759 
Q 2956 1122 2956 1747 
Q 2956 2369 2687 2733 
Q 2419 3097 1959 3097 
z
M 1959 3584 
Q 2709 3584 3137 3096 
Q 3566 2609 3566 1747 
Q 3566 888 3137 398 
Q 2709 -91 1959 -91 
Q 1206 -91 779 398 
Q 353 888 353 1747 
Q 353 2609 779 3096 
Q 1206 3584 1959 3584 
z
" transform="scale(0.015625)"/>
      <path id="DejaVuSans-6c" d="M 603 4863 
L 1178 4863 
L 1178 0 
L 603 0 
L 603 4863 
z
" transform="scale(0.015625)"/>
      <path id="DejaVuSans-61" d="M 2194 1759 
Q 1497 1759 1228 1600 
Q 959 1441 959 1056 
Q 959 750 1161 570 
Q 1363 391 1709 391 
Q 2188 391 2477 730 
Q 2766 1069 2766 1631 
L 2766 1759 
L 2194 1759 
z
M 3341 1997 
L 3341 0 
L 2766 0 
L 2766 531 
Q 2569 213 2275 61 
Q 1981 -91 1556 -91 
Q 1019 -91 701 211 
Q 384 513 384 1019 
Q 384 1609 779 1909 
Q 1175 2209 1959 2209 
L 2766 2209 
L 2766 2266 
Q 2766 2663 2505 2880 
Q 2244 3097 1772 3097 
Q 1472 3097 1187 3025 
Q 903 2953 641 2809 
L 641 3341 
Q 956 3463 1253 3523 
Q 1550 3584 1831 3584 
Q 2591 3584 2966 3190 
Q 3341 2797 3341 1997 
z
" transform="scale(0.015625)"/>
      <path id="DejaVuSans-74" d="M 1172 4494 
L 1172 3500 
L 2356 3500 
L 2356 3053 
L 1172 3053 
L 1172 1153 
Q 1172 725 1289 603 
Q 1406 481 1766 481 
L 2356 481 
L 2356 0 
L 1766 0 
Q 1100 0 847 248 
Q 594 497 594 1153 
L 594 3053 
L 172 3053 
L 172 3500 
L 594 3500 
L 594 4494 
L 1172 4494 
z
" transform="scale(0.015625)"/>
      <path id="DejaVuSans-65" d="M 3597 1894 
L 3597 1613 
L 953 1613 
Q 991 1019 1311 708 
Q 1631 397 2203 397 
Q 2534 397 2845 478 
Q 3156 559 3463 722 
L 3463 178 
Q 3153 47 2828 -22 
Q 2503 -91 2169 -91 
Q 1331 -91 842 396 
Q 353 884 353 1716 
Q 353 2575 817 3079 
Q 1281 3584 2069 3584 
Q 2775 3584 3186 3129 
Q 3597 2675 3597 1894 
z
M 3022 2063 
Q 3016 2534 2758 2815 
Q 2500 3097 2075 3097 
Q 1594 3097 1305 2825 
Q 1016 2553 972 2059 
L 3022 2063 
z
" transform="scale(0.015625)"/>
      <path id="DejaVuSans-64" d="M 2906 2969 
L 2906 4863 
L 3481 4863 
L 3481 0 
L 2906 0 
L 2906 525 
Q 2725 213 2448 61 
Q 2172 -91 1784 -91 
Q 1150 -91 751 415 
Q 353 922 353 1747 
Q 353 2572 751 3078 
Q 1150 3584 1784 3584 
Q 2172 3584 2448 3432 
Q 2725 3281 2906 2969 
z
M 947 1747 
Q 947 1113 1208 752 
Q 1469 391 1925 391 
Q 2381 391 2643 752 
Q 2906 1113 2906 1747 
Q 2906 2381 2643 2742 
Q 2381 3103 1925 3103 
Q 1469 3103 1208 2742 
Q 947 2381 947 1747 
z
" transform="scale(0.015625)"/>
     </defs>
     <use xlink:href="#DejaVuSans-49"/>
     <use xlink:href="#DejaVuSans-73" x="29.492188"/>
     <use xlink:href="#DejaVuSans-6f" x="81.591797"/>
     <use xlink:href="#DejaVuSans-6c" x="142.773438"/>
     <use xlink:href="#DejaVuSans-61" x="170.556641"/>
     <use xlink:href="#DejaVuSans-74" x="231.835938"/>
     <use xlink:href="#DejaVuSans-65" x="271.044922"/>
     <use xlink:href="#DejaVuSans-64" x="332.568359"/>
    </g>
    <!-- labels -->
    <g transform="translate(282.067827 114.153226) scale(0.1 -0.1)">
     <defs>
      <path id="DejaVuSans-62" d="M 3116 1747 
Q 3116 2381 2855 2742 
Q 2594 3103 2138 3103 
Q 1681 3103 1420 2742 
Q 1159 2381 1159 1747 
Q 1159 1113 1420 752 
Q 1681 391 2138 391 
Q 2594 391 2855 752 
Q 3116 1113 3116 1747 
z
M 1159 2969 
Q 1341 3281 1617 3432 
Q 1894 3584 2278 3584 
Q 2916 3584 3314 3078 
Q 3713 2572 3713 1747 
Q 3713 922 3314 415 
Q 2916 -91 2278 -91 
Q 1894 -91 1617 61 
Q 1341 213 1159 525 
L 1159 0 
L 581 0 
L 581 4863 
L 1159 4863 
L 1159 2969 
z
" transform="scale(0.015625)"/>
     </defs>
     <use xlink:href="#DejaVuSans-6c"/>
     <use xlink:href="#DejaVuSans-61" x="27.783203"/>
     <use xlink:href="#DejaVuSans-62" x="89.0625"/>
     <use xlink:href="#DejaVuSans-65" x="152.539062"/>
     <use xlink:href="#DejaVuSans-6c" x="214.0625"/>
     <use xlink:href="#DejaVuSans-73" x="241.845703"/>
    </g>
   </g>
   <g id="text_29">
    <!-- Leiden -->
    <g transform="translate(343.399412 102.955414) scale(0.1 -0.1)">
     <defs>
      <path id="DejaVuSans-4c" d="M 628 4666 
L 1259 4666 
L 1259 531 
L 3531 531 
L 3531 0 
L 628 0 
L 628 4666 
z
" transform="scale(0.015625)"/>
      <path id="DejaVuSans-69" d="M 603 3500 
L 1178 3500 
L 1178 0 
L 603 0 
L 603 3500 
z
M 603 4863 
L 1178 4863 
L 1178 4134 
L 603 4134 
L 603 4863 
z
" transform="scale(0.015625)"/>
      <path id="DejaVuSans-6e" d="M 3513 2113 
L 3513 0 
L 2938 0 
L 2938 2094 
Q 2938 2591 2744 2837 
Q 2550 3084 2163 3084 
Q 1697 3084 1428 2787 
Q 1159 2491 1159 1978 
L 1159 0 
L 581 0 
L 581 3500 
L 1159 3500 
L 1159 2956 
Q 1366 3272 1645 3428 
Q 1925 3584 2291 3584 
Q 2894 3584 3203 3211 
Q 3513 2838 3513 2113 
z
" transform="scale(0.015625)"/>
     </defs>
     <use xlink:href="#DejaVuSans-4c"/>
     <use xlink:href="#DejaVuSans-65" x="53.962891"/>
     <use xlink:href="#DejaVuSans-69" x="115.486328"/>
     <use xlink:href="#DejaVuSans-64" x="143.269531"/>
     <use xlink:href="#DejaVuSans-65" x="206.746094"/>
     <use xlink:href="#DejaVuSans-6e" x="268.269531"/>
    </g>
    <!-- NMI -->
    <g transform="translate(350.453319 114.153226) scale(0.1 -0.1)">
     <defs>
      <path id="DejaVuSans-4e" d="M 628 4666 
L 1478 4666 
L 3547 763 
L 3547 4666 
L 4159 4666 
L 4159 0 
L 3309 0 
L 1241 3903 
L 1241 0 
L 628 0 
L 628 4666 
z
" transform="scale(0.015625)"/>
      <path id="DejaVuSans-4d" d="M 628 4666 
L 1569 4666 
L 2759 1491 
L 3956 4666 
L 4897 4666 
L 4897 0 
L 4281 0 
L 4281 4097 
L 3078 897 
L 2444 897 
L 1241 4097 
L 1241 0 
L 628 0 
L 628 4666 
z
" transform="scale(0.015625)"/>
     </defs>
     <use xlink:href="#DejaVuSans-4e"/>
     <use xlink:href="#DejaVuSans-4d" x="74.804688"/>
     <use xlink:href="#DejaVuSans-49" x="161.083984"/>
    </g>
   </g>
   <g id="text_30">
    <!-- Leiden -->
    <g transform="translate(406.616935 102.955414) scale(0.1 -0.1)">
     <use xlink:href="#DejaVuSans-4c"/>
     <use xlink:href="#DejaVuSans-65" x="53.962891"/>
     <use xlink:href="#DejaVuSans-69" x="115.486328"/>
     <use xlink:href="#DejaVuSans-64" x="143.269531"/>
     <use xlink:href="#DejaVuSans-65" x="206.746094"/>
     <use xlink:href="#DejaVuSans-6e" x="268.269531"/>
    </g>
    <!-- ARI -->
    <g transform="translate(414.830997 114.153226) scale(0.1 -0.1)">
     <defs>
      <path id="DejaVuSans-41" d="M 2188 4044 
L 1331 1722 
L 3047 1722 
L 2188 4044 
z
M 1831 4666 
L 2547 4666 
L 4325 0 
L 3669 0 
L 3244 1197 
L 1141 1197 
L 716 0 
L 50 0 
L 1831 4666 
z
" transform="scale(0.015625)"/>
      <path id="DejaVuSans-52" d="M 2841 2188 
Q 3044 2119 3236 1894 
Q 3428 1669 3622 1275 
L 4263 0 
L 3584 0 
L 2988 1197 
Q 2756 1666 2539 1819 
Q 2322 1972 1947 1972 
L 1259 1972 
L 1259 0 
L 628 0 
L 628 4666 
L 2053 4666 
Q 2853 4666 3247 4331 
Q 3641 3997 3641 3322 
Q 3641 2881 3436 2590 
Q 3231 2300 2841 2188 
z
M 1259 4147 
L 1259 2491 
L 2053 2491 
Q 2509 2491 2742 2702 
Q 2975 2913 2975 3322 
Q 2975 3731 2742 3939 
Q 2509 4147 2053 4147 
L 1259 4147 
z
" transform="scale(0.015625)"/>
     </defs>
     <use xlink:href="#DejaVuSans-41"/>
     <use xlink:href="#DejaVuSans-52" x="68.408203"/>
     <use xlink:href="#DejaVuSans-49" x="137.890625"/>
    </g>
   </g>
   <g id="text_31">
    <!-- KMeans -->
    <g transform="translate(466.91102 102.955414) scale(0.1 -0.1)">
     <defs>
      <path id="DejaVuSans-4b" d="M 628 4666 
L 1259 4666 
L 1259 2694 
L 3353 4666 
L 4166 4666 
L 1850 2491 
L 4331 0 
L 3500 0 
L 1259 2247 
L 1259 0 
L 628 0 
L 628 4666 
z
" transform="scale(0.015625)"/>
     </defs>
     <use xlink:href="#DejaVuSans-4b"/>
     <use xlink:href="#DejaVuSans-4d" x="65.576172"/>
     <use xlink:href="#DejaVuSans-65" x="151.855469"/>
     <use xlink:href="#DejaVuSans-61" x="213.378906"/>
     <use xlink:href="#DejaVuSans-6e" x="274.658203"/>
     <use xlink:href="#DejaVuSans-73" x="338.037109"/>
    </g>
    <!-- NMI -->
    <g transform="translate(476.888364 114.153226) scale(0.1 -0.1)">
     <use xlink:href="#DejaVuSans-4e"/>
     <use xlink:href="#DejaVuSans-4d" x="74.804688"/>
     <use xlink:href="#DejaVuSans-49" x="161.083984"/>
    </g>
   </g>
   <g id="text_32">
    <!-- KMeans -->
    <g transform="translate(530.128543 102.955414) scale(0.1 -0.1)">
     <use xlink:href="#DejaVuSans-4b"/>
     <use xlink:href="#DejaVuSans-4d" x="65.576172"/>
     <use xlink:href="#DejaVuSans-65" x="151.855469"/>
     <use xlink:href="#DejaVuSans-61" x="213.378906"/>
     <use xlink:href="#DejaVuSans-6e" x="274.658203"/>
     <use xlink:href="#DejaVuSans-73" x="338.037109"/>
    </g>
    <!-- ARI -->
    <g transform="translate(541.266043 114.153226) scale(0.1 -0.1)">
     <use xlink:href="#DejaVuSans-41"/>
     <use xlink:href="#DejaVuSans-52" x="68.408203"/>
     <use xlink:href="#DejaVuSans-49" x="137.890625"/>
    </g>
   </g>
   <g id="text_33">
    <!-- Silhouette -->
    <g transform="translate(587.43044 102.955414) scale(0.1 -0.1)">
     <defs>
      <path id="DejaVuSans-53" d="M 3425 4513 
L 3425 3897 
Q 3066 4069 2747 4153 
Q 2428 4238 2131 4238 
Q 1616 4238 1336 4038 
Q 1056 3838 1056 3469 
Q 1056 3159 1242 3001 
Q 1428 2844 1947 2747 
L 2328 2669 
Q 3034 2534 3370 2195 
Q 3706 1856 3706 1288 
Q 3706 609 3251 259 
Q 2797 -91 1919 -91 
Q 1588 -91 1214 -16 
Q 841 59 441 206 
L 441 856 
Q 825 641 1194 531 
Q 1563 422 1919 422 
Q 2459 422 2753 634 
Q 3047 847 3047 1241 
Q 3047 1584 2836 1778 
Q 2625 1972 2144 2069 
L 1759 2144 
Q 1053 2284 737 2584 
Q 422 2884 422 3419 
Q 422 4038 858 4394 
Q 1294 4750 2059 4750 
Q 2388 4750 2728 4690 
Q 3069 4631 3425 4513 
z
" transform="scale(0.015625)"/>
      <path id="DejaVuSans-68" d="M 3513 2113 
L 3513 0 
L 2938 0 
L 2938 2094 
Q 2938 2591 2744 2837 
Q 2550 3084 2163 3084 
Q 1697 3084 1428 2787 
Q 1159 2491 1159 1978 
L 1159 0 
L 581 0 
L 581 4863 
L 1159 4863 
L 1159 2956 
Q 1366 3272 1645 3428 
Q 1925 3584 2291 3584 
Q 2894 3584 3203 3211 
Q 3513 2838 3513 2113 
z
" transform="scale(0.015625)"/>
      <path id="DejaVuSans-75" d="M 544 1381 
L 544 3500 
L 1119 3500 
L 1119 1403 
Q 1119 906 1312 657 
Q 1506 409 1894 409 
Q 2359 409 2629 706 
Q 2900 1003 2900 1516 
L 2900 3500 
L 3475 3500 
L 3475 0 
L 2900 0 
L 2900 538 
Q 2691 219 2414 64 
Q 2138 -91 1772 -91 
Q 1169 -91 856 284 
Q 544 659 544 1381 
z
M 1991 3584 
L 1991 3584 
z
" transform="scale(0.015625)"/>
     </defs>
     <use xlink:href="#DejaVuSans-53"/>
     <use xlink:href="#DejaVuSans-69" x="63.476562"/>
     <use xlink:href="#DejaVuSans-6c" x="91.259766"/>
     <use xlink:href="#DejaVuSans-68" x="119.042969"/>
     <use xlink:href="#DejaVuSans-6f" x="182.421875"/>
     <use xlink:href="#DejaVuSans-75" x="243.603516"/>
     <use xlink:href="#DejaVuSans-65" x="306.982422"/>
     <use xlink:href="#DejaVuSans-74" x="368.505859"/>
     <use xlink:href="#DejaVuSans-74" x="407.714844"/>
     <use xlink:href="#DejaVuSans-65" x="446.923828"/>
    </g>
    <!-- label -->
    <g transform="translate(600.760128 114.153226) scale(0.1 -0.1)">
     <use xlink:href="#DejaVuSans-6c"/>
     <use xlink:href="#DejaVuSans-61" x="27.783203"/>
     <use xlink:href="#DejaVuSans-62" x="89.0625"/>
     <use xlink:href="#DejaVuSans-65" x="152.539062"/>
     <use xlink:href="#DejaVuSans-6c" x="214.0625"/>
    </g>
   </g>
   <g id="text_34">
    <!-- cLISI -->
    <g transform="translate(664.411244 108.55432) scale(0.1 -0.1)">
     <defs>
      <path id="DejaVuSans-63" d="M 3122 3366 
L 3122 2828 
Q 2878 2963 2633 3030 
Q 2388 3097 2138 3097 
Q 1578 3097 1268 2742 
Q 959 2388 959 1747 
Q 959 1106 1268 751 
Q 1578 397 2138 397 
Q 2388 397 2633 464 
Q 2878 531 3122 666 
L 3122 134 
Q 2881 22 2623 -34 
Q 2366 -91 2075 -91 
Q 1284 -91 818 406 
Q 353 903 353 1747 
Q 353 2603 823 3093 
Q 1294 3584 2113 3584 
Q 2378 3584 2631 3529 
Q 2884 3475 3122 3366 
z
" transform="scale(0.015625)"/>
     </defs>
     <use xlink:href="#DejaVuSans-63"/>
     <use xlink:href="#DejaVuSans-4c" x="54.980469"/>
     <use xlink:href="#DejaVuSans-49" x="110.693359"/>
     <use xlink:href="#DejaVuSans-53" x="140.185547"/>
     <use xlink:href="#DejaVuSans-49" x="203.662109"/>
    </g>
   </g>
   <g id="text_35">
    <!-- Silhouette -->
    <g transform="translate(713.865486 102.955414) scale(0.1 -0.1)">
     <use xlink:href="#DejaVuSans-53"/>
     <use xlink:href="#DejaVuSans-69" x="63.476562"/>
     <use xlink:href="#DejaVuSans-6c" x="91.259766"/>
     <use xlink:href="#DejaVuSans-68" x="119.042969"/>
     <use xlink:href="#DejaVuSans-6f" x="182.421875"/>
     <use xlink:href="#DejaVuSans-75" x="243.603516"/>
     <use xlink:href="#DejaVuSans-65" x="306.982422"/>
     <use xlink:href="#DejaVuSans-74" x="368.505859"/>
     <use xlink:href="#DejaVuSans-74" x="407.714844"/>
     <use xlink:href="#DejaVuSans-65" x="446.923828"/>
    </g>
    <!-- batch -->
    <g transform="translate(725.171736 114.153226) scale(0.1 -0.1)">
     <use xlink:href="#DejaVuSans-62"/>
     <use xlink:href="#DejaVuSans-61" x="63.476562"/>
     <use xlink:href="#DejaVuSans-74" x="124.755859"/>
     <use xlink:href="#DejaVuSans-63" x="163.964844"/>
     <use xlink:href="#DejaVuSans-68" x="218.945312"/>
    </g>
   </g>
   <g id="text_36">
    <!-- iLISI -->
    <g transform="translate(792.206446 108.55432) scale(0.1 -0.1)">
     <use xlink:href="#DejaVuSans-69"/>
     <use xlink:href="#DejaVuSans-4c" x="27.783203"/>
     <use xlink:href="#DejaVuSans-49" x="83.496094"/>
     <use xlink:href="#DejaVuSans-53" x="112.988281"/>
     <use xlink:href="#DejaVuSans-49" x="176.464844"/>
    </g>
   </g>
   <g id="text_37">
    <!-- KBET -->
    <g transform="translate(852.800531 108.55432) scale(0.1 -0.1)">
     <defs>
      <path id="DejaVuSans-42" d="M 1259 2228 
L 1259 519 
L 2272 519 
Q 2781 519 3026 730 
Q 3272 941 3272 1375 
Q 3272 1813 3026 2020 
Q 2781 2228 2272 2228 
L 1259 2228 
z
M 1259 4147 
L 1259 2741 
L 2194 2741 
Q 2656 2741 2882 2914 
Q 3109 3088 3109 3444 
Q 3109 3797 2882 3972 
Q 2656 4147 2194 4147 
L 1259 4147 
z
M 628 4666 
L 2241 4666 
Q 2963 4666 3353 4366 
Q 3744 4066 3744 3513 
Q 3744 3084 3544 2831 
Q 3344 2578 2956 2516 
Q 3422 2416 3680 2098 
Q 3938 1781 3938 1306 
Q 3938 681 3513 340 
Q 3088 0 2303 0 
L 628 0 
L 628 4666 
z
" transform="scale(0.015625)"/>
      <path id="DejaVuSans-45" d="M 628 4666 
L 3578 4666 
L 3578 4134 
L 1259 4134 
L 1259 2753 
L 3481 2753 
L 3481 2222 
L 1259 2222 
L 1259 531 
L 3634 531 
L 3634 0 
L 628 0 
L 628 4666 
z
" transform="scale(0.015625)"/>
      <path id="DejaVuSans-54" d="M -19 4666 
L 3928 4666 
L 3928 4134 
L 2272 4134 
L 2272 0 
L 1638 0 
L 1638 4134 
L -19 4134 
L -19 4666 
z
" transform="scale(0.015625)"/>
     </defs>
     <use xlink:href="#DejaVuSans-4b"/>
     <use xlink:href="#DejaVuSans-42" x="65.576172"/>
     <use xlink:href="#DejaVuSans-45" x="134.179688"/>
     <use xlink:href="#DejaVuSans-54" x="197.363281"/>
    </g>
   </g>
   <g id="text_38">
    <!-- Graph -->
    <g transform="translate(913.603991 102.955414) scale(0.1 -0.1)">
     <defs>
      <path id="DejaVuSans-47" d="M 3809 666 
L 3809 1919 
L 2778 1919 
L 2778 2438 
L 4434 2438 
L 4434 434 
Q 4069 175 3628 42 
Q 3188 -91 2688 -91 
Q 1594 -91 976 548 
Q 359 1188 359 2328 
Q 359 3472 976 4111 
Q 1594 4750 2688 4750 
Q 3144 4750 3555 4637 
Q 3966 4525 4313 4306 
L 4313 3634 
Q 3963 3931 3569 4081 
Q 3175 4231 2741 4231 
Q 1884 4231 1454 3753 
Q 1025 3275 1025 2328 
Q 1025 1384 1454 906 
Q 1884 428 2741 428 
Q 3075 428 3337 486 
Q 3600 544 3809 666 
z
" transform="scale(0.015625)"/>
      <path id="DejaVuSans-72" d="M 2631 2963 
Q 2534 3019 2420 3045 
Q 2306 3072 2169 3072 
Q 1681 3072 1420 2755 
Q 1159 2438 1159 1844 
L 1159 0 
L 581 0 
L 581 3500 
L 1159 3500 
L 1159 2956 
Q 1341 3275 1631 3429 
Q 1922 3584 2338 3584 
Q 2397 3584 2469 3576 
Q 2541 3569 2628 3553 
L 2631 2963 
z
" transform="scale(0.015625)"/>
      <path id="DejaVuSans-70" d="M 1159 525 
L 1159 -1331 
L 581 -1331 
L 581 3500 
L 1159 3500 
L 1159 2969 
Q 1341 3281 1617 3432 
Q 1894 3584 2278 3584 
Q 2916 3584 3314 3078 
Q 3713 2572 3713 1747 
Q 3713 922 3314 415 
Q 2916 -91 2278 -91 
Q 1894 -91 1617 61 
Q 1341 213 1159 525 
z
M 3116 1747 
Q 3116 2381 2855 2742 
Q 2594 3103 2138 3103 
Q 1681 3103 1420 2742 
Q 1159 2381 1159 1747 
Q 1159 1113 1420 752 
Q 1681 391 2138 391 
Q 2594 391 2855 752 
Q 3116 1113 3116 1747 
z
" transform="scale(0.015625)"/>
     </defs>
     <use xlink:href="#DejaVuSans-47"/>
     <use xlink:href="#DejaVuSans-72" x="77.490234"/>
     <use xlink:href="#DejaVuSans-61" x="118.603516"/>
     <use xlink:href="#DejaVuSans-70" x="179.882812"/>
     <use xlink:href="#DejaVuSans-68" x="243.359375"/>
    </g>
    <!-- connectivity -->
    <g transform="translate(898.351647 114.153226) scale(0.1 -0.1)">
     <defs>
      <path id="DejaVuSans-76" d="M 191 3500 
L 800 3500 
L 1894 563 
L 2988 3500 
L 3597 3500 
L 2284 0 
L 1503 0 
L 191 3500 
z
" transform="scale(0.015625)"/>
      <path id="DejaVuSans-79" d="M 2059 -325 
Q 1816 -950 1584 -1140 
Q 1353 -1331 966 -1331 
L 506 -1331 
L 506 -850 
L 844 -850 
Q 1081 -850 1212 -737 
Q 1344 -625 1503 -206 
L 1606 56 
L 191 3500 
L 800 3500 
L 1894 763 
L 2988 3500 
L 3597 3500 
L 2059 -325 
z
" transform="scale(0.015625)"/>
     </defs>
     <use xlink:href="#DejaVuSans-63"/>
     <use xlink:href="#DejaVuSans-6f" x="54.980469"/>
     <use xlink:href="#DejaVuSans-6e" x="116.162109"/>
     <use xlink:href="#DejaVuSans-6e" x="179.541016"/>
     <use xlink:href="#DejaVuSans-65" x="242.919922"/>
     <use xlink:href="#DejaVuSans-63" x="304.443359"/>
     <use xlink:href="#DejaVuSans-74" x="359.423828"/>
     <use xlink:href="#DejaVuSans-69" x="398.632812"/>
     <use xlink:href="#DejaVuSans-76" x="426.416016"/>
     <use xlink:href="#DejaVuSans-69" x="485.595703"/>
     <use xlink:href="#DejaVuSans-74" x="513.378906"/>
     <use xlink:href="#DejaVuSans-79" x="552.587891"/>
    </g>
   </g>
   <g id="text_39">
    <!-- PCR -->
    <g transform="translate(982.177764 102.955414) scale(0.1 -0.1)">
     <defs>
      <path id="DejaVuSans-50" d="M 1259 4147 
L 1259 2394 
L 2053 2394 
Q 2494 2394 2734 2622 
Q 2975 2850 2975 3272 
Q 2975 3691 2734 3919 
Q 2494 4147 2053 4147 
L 1259 4147 
z
M 628 4666 
L 2053 4666 
Q 2838 4666 3239 4311 
Q 3641 3956 3641 3272 
Q 3641 2581 3239 2228 
Q 2838 1875 2053 1875 
L 1259 1875 
L 1259 0 
L 628 0 
L 628 4666 
z
" transform="scale(0.015625)"/>
      <path id="DejaVuSans-43" d="M 4122 4306 
L 4122 3641 
Q 3803 3938 3442 4084 
Q 3081 4231 2675 4231 
Q 1875 4231 1450 3742 
Q 1025 3253 1025 2328 
Q 1025 1406 1450 917 
Q 1875 428 2675 428 
Q 3081 428 3442 575 
Q 3803 722 4122 1019 
L 4122 359 
Q 3791 134 3420 21 
Q 3050 -91 2638 -91 
Q 1578 -91 968 557 
Q 359 1206 359 2328 
Q 359 3453 968 4101 
Q 1578 4750 2638 4750 
Q 3056 4750 3426 4639 
Q 3797 4528 4122 4306 
z
" transform="scale(0.015625)"/>
     </defs>
     <use xlink:href="#DejaVuSans-50"/>
     <use xlink:href="#DejaVuSans-43" x="60.302734"/>
     <use xlink:href="#DejaVuSans-52" x="130.126953"/>
    </g>
    <!-- comparison -->
    <g transform="translate(962.963701 114.153226) scale(0.1 -0.1)">
     <defs>
      <path id="DejaVuSans-6d" d="M 3328 2828 
Q 3544 3216 3844 3400 
Q 4144 3584 4550 3584 
Q 5097 3584 5394 3201 
Q 5691 2819 5691 2113 
L 5691 0 
L 5113 0 
L 5113 2094 
Q 5113 2597 4934 2840 
Q 4756 3084 4391 3084 
Q 3944 3084 3684 2787 
Q 3425 2491 3425 1978 
L 3425 0 
L 2847 0 
L 2847 2094 
Q 2847 2600 2669 2842 
Q 2491 3084 2119 3084 
Q 1678 3084 1418 2786 
Q 1159 2488 1159 1978 
L 1159 0 
L 581 0 
L 581 3500 
L 1159 3500 
L 1159 2956 
Q 1356 3278 1631 3431 
Q 1906 3584 2284 3584 
Q 2666 3584 2933 3390 
Q 3200 3197 3328 2828 
z
" transform="scale(0.015625)"/>
     </defs>
     <use xlink:href="#DejaVuSans-63"/>
     <use xlink:href="#DejaVuSans-6f" x="54.980469"/>
     <use xlink:href="#DejaVuSans-6d" x="116.162109"/>
     <use xlink:href="#DejaVuSans-70" x="213.574219"/>
     <use xlink:href="#DejaVuSans-61" x="277.050781"/>
     <use xlink:href="#DejaVuSans-72" x="338.330078"/>
     <use xlink:href="#DejaVuSans-69" x="379.443359"/>
     <use xlink:href="#DejaVuSans-73" x="407.226562"/>
     <use xlink:href="#DejaVuSans-6f" x="459.326172"/>
     <use xlink:href="#DejaVuSans-6e" x="520.507812"/>
    </g>
   </g>
   <g id="text_40">
    <!-- Batch -->
    <g transform="translate(1041.003099 102.955414) scale(0.1 -0.1)">
     <use xlink:href="#DejaVuSans-42"/>
     <use xlink:href="#DejaVuSans-61" x="68.603516"/>
     <use xlink:href="#DejaVuSans-74" x="129.882812"/>
     <use xlink:href="#DejaVuSans-63" x="169.091797"/>
     <use xlink:href="#DejaVuSans-68" x="224.072266"/>
    </g>
    <!-- correction -->
    <g transform="translate(1030.253099 114.153226) scale(0.1 -0.1)">
     <use xlink:href="#DejaVuSans-63"/>
     <use xlink:href="#DejaVuSans-6f" x="54.980469"/>
     <use xlink:href="#DejaVuSans-72" x="116.162109"/>
     <use xlink:href="#DejaVuSans-72" x="155.525391"/>
     <use xlink:href="#DejaVuSans-65" x="194.388672"/>
     <use xlink:href="#DejaVuSans-63" x="255.912109"/>
     <use xlink:href="#DejaVuSans-74" x="310.892578"/>
     <use xlink:href="#DejaVuSans-69" x="350.101562"/>
     <use xlink:href="#DejaVuSans-6f" x="377.884766"/>
     <use xlink:href="#DejaVuSans-6e" x="439.066406"/>
    </g>
   </g>
   <g id="text_41">
    <!-- Bio -->
    <g transform="translate(1110.714372 102.955414) scale(0.1 -0.1)">
     <use xlink:href="#DejaVuSans-42"/>
     <use xlink:href="#DejaVuSans-69" x="68.603516"/>
     <use xlink:href="#DejaVuSans-6f" x="96.386719"/>
    </g>
    <!-- conservation -->
    <g transform="translate(1086.278434 114.153226) scale(0.1 -0.1)">
     <use xlink:href="#DejaVuSans-63"/>
     <use xlink:href="#DejaVuSans-6f" x="54.980469"/>
     <use xlink:href="#DejaVuSans-6e" x="116.162109"/>
     <use xlink:href="#DejaVuSans-73" x="179.541016"/>
     <use xlink:href="#DejaVuSans-65" x="231.640625"/>
     <use xlink:href="#DejaVuSans-72" x="293.164062"/>
     <use xlink:href="#DejaVuSans-76" x="334.277344"/>
     <use xlink:href="#DejaVuSans-61" x="393.457031"/>
     <use xlink:href="#DejaVuSans-74" x="454.736328"/>
     <use xlink:href="#DejaVuSans-69" x="493.945312"/>
     <use xlink:href="#DejaVuSans-6f" x="521.728516"/>
     <use xlink:href="#DejaVuSans-6e" x="582.910156"/>
    </g>
   </g>
   <g id="text_42">
    <!-- Total -->
    <g transform="translate(1170.134238 108.55432) scale(0.1 -0.1)">
     <use xlink:href="#DejaVuSans-54"/>
     <use xlink:href="#DejaVuSans-6f" x="44.083984"/>
     <use xlink:href="#DejaVuSans-74" x="105.265625"/>
     <use xlink:href="#DejaVuSans-61" x="144.474609"/>
     <use xlink:href="#DejaVuSans-6c" x="205.753906"/>
    </g>
   </g>
   <g id="text_43">
    <!-- Bio conservation -->
    <g transform="translate(444.635239 74.328656) scale(0.1 -0.1)">
     <defs>
      <path id="DejaVuSans-20" transform="scale(0.015625)"/>
     </defs>
     <use xlink:href="#DejaVuSans-42"/>
     <use xlink:href="#DejaVuSans-69" x="68.603516"/>
     <use xlink:href="#DejaVuSans-6f" x="96.386719"/>
     <use xlink:href="#DejaVuSans-20" x="157.568359"/>
     <use xlink:href="#DejaVuSans-63" x="189.355469"/>
     <use xlink:href="#DejaVuSans-6f" x="244.335938"/>
     <use xlink:href="#DejaVuSans-6e" x="305.517578"/>
     <use xlink:href="#DejaVuSans-73" x="368.896484"/>
     <use xlink:href="#DejaVuSans-65" x="420.996094"/>
     <use xlink:href="#DejaVuSans-72" x="482.519531"/>
     <use xlink:href="#DejaVuSans-76" x="523.632812"/>
     <use xlink:href="#DejaVuSans-61" x="582.8125"/>
     <use xlink:href="#DejaVuSans-74" x="644.091797"/>
     <use xlink:href="#DejaVuSans-69" x="683.300781"/>
     <use xlink:href="#DejaVuSans-6f" x="711.083984"/>
     <use xlink:href="#DejaVuSans-6e" x="772.265625"/>
    </g>
   </g>
   <g id="text_44">
    <!-- Aggregate score -->
    <g transform="translate(1077.508122 74.328656) scale(0.1 -0.1)">
     <defs>
      <path id="DejaVuSans-67" d="M 2906 1791 
Q 2906 2416 2648 2759 
Q 2391 3103 1925 3103 
Q 1463 3103 1205 2759 
Q 947 2416 947 1791 
Q 947 1169 1205 825 
Q 1463 481 1925 481 
Q 2391 481 2648 825 
Q 2906 1169 2906 1791 
z
M 3481 434 
Q 3481 -459 3084 -895 
Q 2688 -1331 1869 -1331 
Q 1566 -1331 1297 -1286 
Q 1028 -1241 775 -1147 
L 775 -588 
Q 1028 -725 1275 -790 
Q 1522 -856 1778 -856 
Q 2344 -856 2625 -561 
Q 2906 -266 2906 331 
L 2906 616 
Q 2728 306 2450 153 
Q 2172 0 1784 0 
Q 1141 0 747 490 
Q 353 981 353 1791 
Q 353 2603 747 3093 
Q 1141 3584 1784 3584 
Q 2172 3584 2450 3431 
Q 2728 3278 2906 2969 
L 2906 3500 
L 3481 3500 
L 3481 434 
z
" transform="scale(0.015625)"/>
     </defs>
     <use xlink:href="#DejaVuSans-41"/>
     <use xlink:href="#DejaVuSans-67" x="68.408203"/>
     <use xlink:href="#DejaVuSans-67" x="131.884766"/>
     <use xlink:href="#DejaVuSans-72" x="195.361328"/>
     <use xlink:href="#DejaVuSans-65" x="234.224609"/>
     <use xlink:href="#DejaVuSans-67" x="295.748047"/>
     <use xlink:href="#DejaVuSans-61" x="359.224609"/>
     <use xlink:href="#DejaVuSans-74" x="420.503906"/>
     <use xlink:href="#DejaVuSans-65" x="459.712891"/>
     <use xlink:href="#DejaVuSans-20" x="521.236328"/>
     <use xlink:href="#DejaVuSans-73" x="553.023438"/>
     <use xlink:href="#DejaVuSans-63" x="605.123047"/>
     <use xlink:href="#DejaVuSans-6f" x="660.103516"/>
     <use xlink:href="#DejaVuSans-72" x="721.285156"/>
     <use xlink:href="#DejaVuSans-65" x="760.148438"/>
    </g>
   </g>
   <g id="text_45">
    <!-- Batch correction -->
    <g transform="translate(824.638812 74.328656) scale(0.1 -0.1)">
     <use xlink:href="#DejaVuSans-42"/>
     <use xlink:href="#DejaVuSans-61" x="68.603516"/>
     <use xlink:href="#DejaVuSans-74" x="129.882812"/>
     <use xlink:href="#DejaVuSans-63" x="169.091797"/>
     <use xlink:href="#DejaVuSans-68" x="224.072266"/>
     <use xlink:href="#DejaVuSans-20" x="287.451172"/>
     <use xlink:href="#DejaVuSans-63" x="319.238281"/>
     <use xlink:href="#DejaVuSans-6f" x="374.21875"/>
     <use xlink:href="#DejaVuSans-72" x="435.400391"/>
     <use xlink:href="#DejaVuSans-72" x="474.763672"/>
     <use xlink:href="#DejaVuSans-65" x="513.626953"/>
     <use xlink:href="#DejaVuSans-63" x="575.150391"/>
     <use xlink:href="#DejaVuSans-74" x="630.130859"/>
     <use xlink:href="#DejaVuSans-69" x="669.339844"/>
     <use xlink:href="#DejaVuSans-6f" x="697.123047"/>
     <use xlink:href="#DejaVuSans-6e" x="758.304688"/>
    </g>
   </g>
  </g>
  <g id="axes_2">
   <g id="patch_89">
    <path d="M 1025.272173 167.996584 
L 1062.291941 167.996584 
L 1062.291941 141.548643 
L 1025.272173 141.548643 
z
" clip-path="url(#p038c819511)" style="fill: #2094c0"/>
   </g>
   <g id="text_46">
    <!-- 0.61 -->
    <g transform="translate(1038.521137 157.531988) scale(0.1 -0.1)">
     <use xlink:href="#DejaVuSans-30"/>
     <use xlink:href="#DejaVuSans-2e" x="63.623047"/>
     <use xlink:href="#DejaVuSans-36" x="95.410156"/>
     <use xlink:href="#DejaVuSans-31" x="159.033203"/>
    </g>
   </g>
  </g>
  <g id="axes_3">
   <g id="patch_90">
    <path d="M 1088.489696 167.996584 
L 1125.706391 167.996584 
L 1125.706391 141.548643 
L 1088.489696 141.548643 
z
" clip-path="url(#pfb623dcd54)" style="fill: #1f93c0"/>
   </g>
   <g id="text_47">
    <!-- 0.62 -->
    <g transform="translate(1101.935587 157.531988) scale(0.1 -0.1)">
     <use xlink:href="#DejaVuSans-30"/>
     <use xlink:href="#DejaVuSans-2e" x="63.623047"/>
     <use xlink:href="#DejaVuSans-36" x="95.410156"/>
     <use xlink:href="#DejaVuSans-32" x="159.033203"/>
    </g>
   </g>
  </g>
  <g id="axes_4">
   <g id="patch_91">
    <path d="M 1151.707218 167.996584 
L 1188.845143 167.996584 
L 1188.845143 141.548643 
L 1151.707218 141.548643 
z
" clip-path="url(#pa84c77c119)" style="fill: #2094c0"/>
   </g>
   <g id="text_48">
    <!-- 0.62 -->
    <g transform="translate(1165.074338 157.531988) scale(0.1 -0.1)">
     <use xlink:href="#DejaVuSans-30"/>
     <use xlink:href="#DejaVuSans-2e" x="63.623047"/>
     <use xlink:href="#DejaVuSans-36" x="95.410156"/>
     <use xlink:href="#DejaVuSans-32" x="159.033203"/>
    </g>
   </g>
  </g>
  <g id="axes_5">
   <g id="patch_92">
    <path d="M 1025.272173 216.974253 
L 1062.630068 216.974253 
L 1062.630068 190.526312 
L 1025.272173 190.526312 
z
" clip-path="url(#peaf461e16c)" style="fill: #1f93c0"/>
   </g>
   <g id="text_49">
    <!-- 0.62 -->
    <g transform="translate(1038.859263 206.509657) scale(0.1 -0.1)">
     <use xlink:href="#DejaVuSans-30"/>
     <use xlink:href="#DejaVuSans-2e" x="63.623047"/>
     <use xlink:href="#DejaVuSans-36" x="95.410156"/>
     <use xlink:href="#DejaVuSans-32" x="159.033203"/>
    </g>
   </g>
  </g>
  <g id="axes_6">
   <g id="patch_93">
    <path d="M 1088.489696 216.974253 
L 1124.781716 216.974253 
L 1124.781716 190.526312 
L 1088.489696 190.526312 
z
" clip-path="url(#p17659d6906)" style="fill: #2397c1"/>
   </g>
   <g id="text_50">
    <!-- 0.60 -->
    <g transform="translate(1101.010912 206.509657) scale(0.1 -0.1)">
     <use xlink:href="#DejaVuSans-30"/>
     <use xlink:href="#DejaVuSans-2e" x="63.623047"/>
     <use xlink:href="#DejaVuSans-36" x="95.410156"/>
     <use xlink:href="#DejaVuSans-30" x="159.033203"/>
    </g>
   </g>
  </g>
  <g id="axes_7">
   <g id="patch_94">
    <path d="M 1151.707218 216.974253 
L 1188.425588 216.974253 
L 1188.425588 190.526312 
L 1151.707218 190.526312 
z
" clip-path="url(#p9f6632cb1a)" style="fill: #2195c0"/>
   </g>
   <g id="text_51">
    <!-- 0.61 -->
    <g transform="translate(1164.654784 206.509657) scale(0.1 -0.1)">
     <use xlink:href="#DejaVuSans-30"/>
     <use xlink:href="#DejaVuSans-2e" x="63.623047"/>
     <use xlink:href="#DejaVuSans-36" x="95.410156"/>
     <use xlink:href="#DejaVuSans-31" x="159.033203"/>
    </g>
   </g>
  </g>
 </g>
 <defs>
  <clipPath id="p80d537ee96">
   <rect x="168.75" y="31.104" width="1046.25" height="199.584"/>
  </clipPath>
  <clipPath id="p038c819511">
   <rect x="1023.766994" y="140.079313" width="63.217523" height="29.386601"/>
  </clipPath>
  <clipPath id="pfb623dcd54">
   <rect x="1086.984517" y="140.079313" width="63.217523" height="29.386601"/>
  </clipPath>
  <clipPath id="pa84c77c119">
   <rect x="1150.202039" y="140.079313" width="63.217523" height="29.386601"/>
  </clipPath>
  <clipPath id="peaf461e16c">
   <rect x="1023.766994" y="189.056982" width="63.217523" height="29.386601"/>
  </clipPath>
  <clipPath id="p17659d6906">
   <rect x="1086.984517" y="189.056982" width="63.217523" height="29.386601"/>
  </clipPath>
  <clipPath id="p9f6632cb1a">
   <rect x="1150.202039" y="189.056982" width="63.217523" height="29.386601"/>
  </clipPath>
 </defs>
</svg>
